<svg width="49" height="46" viewBox="0 0 49 46" fill="none" xmlns="http://www.w3.org/2000/svg">
<path d="M41.2572 45.3344H7.75836C6.75023 45.3344 5.75197 45.1358 4.82057 44.75C3.88918 44.3642 3.04289 43.7987 2.33003 43.0859C1.61717 42.373 1.0517 41.5267 0.665906 40.5953C0.28011 39.664 0.081543 38.6657 0.081543 37.6576V20.9081C0.081543 20.3529 0.302126 19.8203 0.694767 19.4277C1.08741 19.035 1.61994 18.8145 2.17522 18.8145C2.7305 18.8145 3.26303 19.035 3.65568 19.4277C4.04832 19.8203 4.2689 20.3529 4.2689 20.9081V37.6576C4.25773 38.1228 4.33974 38.5856 4.51009 39.0186C4.68045 39.4517 4.93571 39.8463 5.26085 40.1793C5.586 40.5122 5.97446 40.7768 6.40337 40.9574C6.83229 41.1379 7.29299 41.2309 7.75836 41.2308H41.2572C42.1827 41.2308 43.0702 40.8631 43.7246 40.2087C44.379 39.5543 44.7467 38.6668 44.7467 37.7413V20.9919C44.7467 20.4366 44.9673 19.9041 45.3599 19.5114C45.7525 19.1188 46.2851 18.8982 46.8404 18.8982C47.3956 18.8982 47.9282 19.1188 48.3208 19.5114C48.7135 19.9041 48.934 20.4366 48.934 20.9919V37.7413C48.912 39.7628 48.0934 41.694 46.6562 43.1156C45.2188 44.5372 43.2788 45.3345 41.2572 45.3344Z" fill="#00668C"/>
<path d="M24.5078 32.0745C21.9746 32.076 19.5273 31.1565 17.6219 29.4873C15.7165 27.8181 14.4829 25.5131 14.151 23.0018H2.17519C1.79944 23.0046 1.42986 22.9063 1.10523 22.717C0.780593 22.5278 0.51287 22.2547 0.330143 21.9264C0.147416 21.598 0.0564203 21.2266 0.0667021 20.8509C0.0769839 20.4753 0.188164 20.1094 0.388579 19.7915L10.8011 3.04212C11.2286 2.29441 11.8527 1.67799 12.6056 1.25971C13.3585 0.84143 14.2115 0.63724 15.0722 0.669282H33.9433C34.8632 0.671822 35.7634 0.935532 36.5393 1.42973C37.3152 1.92392 37.9348 2.62828 38.326 3.46085L48.6269 20.0428C48.7682 20.3526 48.8318 20.6922 48.8122 21.0322C48.7926 21.3721 48.6903 21.7022 48.5143 21.9937C48.3383 22.2852 48.0939 22.5294 47.8022 22.705C47.5105 22.8807 47.1803 22.9826 46.8403 23.0018H34.8645C34.5326 25.5131 33.299 27.8181 31.3936 29.4873C29.4882 31.1565 27.0409 32.076 24.5078 32.0745ZM5.94381 18.8982H16.133C16.6883 18.8982 17.2209 19.1188 17.6135 19.5115C18.0061 19.9041 18.2267 20.4366 18.2267 20.9919V21.6061C18.2267 23.2719 18.8885 24.8695 20.0664 26.0474C21.2443 27.2253 22.8419 27.8871 24.5078 27.8871C26.1736 27.8871 27.7712 27.2253 28.9491 26.0474C30.127 24.8695 30.7888 23.2719 30.7888 21.6061V20.9919C30.7888 20.4366 31.0094 19.9041 31.402 19.5115C31.7947 19.1188 32.3272 18.8982 32.8825 18.8982H43.0717L34.697 5.33121C34.4737 4.94039 34.2503 4.77289 33.9712 4.77289H15.0722C14.9404 4.77616 14.8117 4.81397 14.699 4.88255C14.5863 4.95114 14.4936 5.04808 14.4302 5.16371L5.94381 18.8982Z" fill="#00668C"/>
</svg>
