<svg width="48" height="43" viewBox="0 0 48 43" fill="none" xmlns="http://www.w3.org/2000/svg">
<path d="M23.9999 42.0532C23.4722 42.0528 22.9663 41.8428 22.5934 41.4694L4.62746 23.4503C2.19625 20.97 0.834473 17.6353 0.834473 14.1622C0.834473 10.689 2.19625 7.35431 4.62746 4.87399C7.09092 2.41078 10.4319 1.02698 13.9156 1.02698C17.3993 1.02698 20.7403 2.41078 23.2038 4.87399L23.9999 5.56397L24.743 4.82091C25.961 3.58957 27.4119 2.61286 29.011 1.94768C30.6102 1.2825 32.3257 0.94214 34.0577 0.94642C35.7878 0.938669 37.5022 1.27485 39.1013 1.93543C40.7004 2.59602 42.1522 3.56782 43.3724 4.79438C45.8036 7.2747 47.1654 10.6094 47.1654 14.0826C47.1654 17.5557 45.8036 20.8904 43.3724 23.3707L25.4064 41.3898C25.2285 41.5891 25.0123 41.7506 24.7707 41.8646C24.529 41.9785 24.2669 42.0427 23.9999 42.0532ZM13.9422 4.90053C12.7369 4.89176 11.5418 5.12174 10.4259 5.57722C9.31001 6.03269 8.29533 6.70464 7.44045 7.55429C5.71782 9.28496 4.75073 11.6274 4.75073 14.0693C4.75073 16.5111 5.71782 18.8536 7.44045 20.5843L23.9999 37.2499L40.5329 20.6373C41.389 19.7821 42.0682 18.7665 42.5316 17.6486C42.995 16.5308 43.2336 15.3325 43.2336 14.1224C43.2336 12.9122 42.995 11.714 42.5316 10.5961C42.0682 9.47818 41.389 8.46259 40.5329 7.60737C39.6847 6.75612 38.675 6.08288 37.563 5.62717C36.4511 5.17146 35.2593 4.94246 34.0577 4.9536C32.8524 4.94483 31.6574 5.17482 30.5415 5.63029C29.4255 6.08577 28.4109 6.75772 27.556 7.60737L25.4064 9.75691C25.0268 10.1172 24.5233 10.318 23.9999 10.318C23.4765 10.318 22.9731 10.1172 22.5934 9.75691L20.4439 7.60737C19.5934 6.74813 18.5807 6.0664 17.4646 5.60173C16.3484 5.13706 15.1512 4.89871 13.9422 4.90053Z" fill="#00668C"/>
</svg>
