<svg width="44" height="44" viewBox="0 0 44 44" fill="none" xmlns="http://www.w3.org/2000/svg">
<path d="M7.3 43.8748C5.4 43.8748 3.6 43.1248 2.225 41.7748C-0.575 38.9748 -0.575 34.4498 2.225 31.6498L16 17.8748C14.75 13.0248 16.1 7.79981 19.65 4.24981C23.225 0.674808 28.475 -0.725193 33.35 0.599807C34 0.774808 34.5 1.27481 34.675 1.92481C34.85 2.57481 34.675 3.24981 34.2 3.72481L28.075 9.84981L29.375 14.6248L34.15 15.9248L40.275 9.79981C40.75 9.32481 41.45 9.14981 42.075 9.32481C42.725 9.49981 43.225 9.99981 43.4 10.6498C44.725 15.5248 43.35 20.7748 39.75 24.3498C36.2 27.8998 30.975 29.2498 26.125 27.9998L12.35 41.7748C11 43.1248 9.2 43.8748 7.3 43.8748ZM28.7 3.92481C26.3 4.12481 24.025 5.17481 22.275 6.92481C19.425 9.77481 18.5 13.9498 19.875 17.7998C20.125 18.4748 19.95 19.2498 19.425 19.7498L4.85 34.3248C3.525 35.6498 3.525 37.8248 4.85 39.1498C5.5 39.7998 6.35 40.1498 7.275 40.1498C8.175 40.1498 9.05 39.7998 9.675 39.1498L24.25 24.5748C24.775 24.0498 25.525 23.8998 26.2 24.1248C30.05 25.4748 34.225 24.5748 37.075 21.7248C38.825 19.9748 39.85 17.6998 40.075 15.2998L36 19.3748C35.525 19.8498 34.825 20.0248 34.175 19.8498L27.325 17.9748C26.675 17.7998 26.175 17.2998 26 16.6498L24.125 9.79981C23.95 9.14981 24.125 8.44981 24.6 7.97481L28.675 3.89981L28.7 3.92481Z" fill="#00668C"/>
</svg>
