<svg width="43" height="38" viewBox="0 0 43 38" fill="none" xmlns="http://www.w3.org/2000/svg">
<path d="M40.8611 37.7178H2.13909C1.82193 37.7168 1.51041 37.6339 1.23477 37.477C0.959138 37.3201 0.728759 37.0945 0.566006 36.8223C0.411292 36.5449 0.330078 36.2325 0.330078 35.9148C0.330078 35.5971 0.411292 35.2847 0.566006 35.0072L19.927 1.12548C20.0992 0.865894 20.333 0.652951 20.6074 0.505645C20.8819 0.35834 21.1886 0.28125 21.5001 0.28125C21.8116 0.28125 22.1183 0.35834 22.3927 0.505645C22.6672 0.652951 22.901 0.865894 23.0732 1.12548L42.4342 35.0072C42.5889 35.2847 42.6701 35.5971 42.6701 35.9148C42.6701 36.2325 42.5889 36.5449 42.4342 36.8223C42.2714 37.0945 42.041 37.3201 41.7654 37.477C41.4898 37.6339 41.1782 37.7168 40.8611 37.7178ZM5.26105 34.0876H37.7391L21.5001 5.67532L5.26105 34.0876Z" fill="black"/>
<path d="M40.8611 37.7178H2.13909C1.82193 37.7168 1.51041 37.6339 1.23477 37.477C0.959138 37.3201 0.728759 37.0945 0.566006 36.8223C0.411292 36.5449 0.330078 36.2325 0.330078 35.9148C0.330078 35.5971 0.411292 35.2847 0.566006 35.0072L19.927 1.12548C20.0992 0.865894 20.333 0.652951 20.6074 0.505645C20.8819 0.35834 21.1886 0.28125 21.5001 0.28125C21.8116 0.28125 22.1183 0.35834 22.3927 0.505645C22.6672 0.652951 22.901 0.865894 23.0732 1.12548L42.4342 35.0072C42.5889 35.2847 42.6701 35.5971 42.6701 35.9148C42.6701 36.2325 42.5889 36.5449 42.4342 36.8223C42.2714 37.0945 42.041 37.3201 41.7654 37.477C41.4898 37.6339 41.1782 37.7168 40.8611 37.7178ZM5.26105 34.0876H37.7391L21.5001 5.67532L5.26105 34.0876Z" fill="#00668C"/>
<path d="M21.5002 24.4073C21.0207 24.401 20.5627 24.2078 20.2236 23.8687C19.8846 23.5297 19.6913 23.0716 19.6851 22.5922V14.1217C19.6851 13.6403 19.8763 13.1787 20.2167 12.8383C20.5571 12.4979 21.0188 12.3066 21.5002 12.3066C21.9815 12.3066 22.4432 12.4979 22.7836 12.8383C23.124 13.1787 23.3152 13.6403 23.3152 14.1217V22.5922C23.309 23.0716 23.1157 23.5297 22.7767 23.8687C22.4376 24.2078 21.9796 24.401 21.5002 24.4073Z" fill="black"/>
<path d="M21.5002 24.4073C21.0207 24.401 20.5627 24.2078 20.2236 23.8687C19.8846 23.5297 19.6913 23.0716 19.6851 22.5922V14.1217C19.6851 13.6403 19.8763 13.1787 20.2167 12.8383C20.5571 12.4979 21.0188 12.3066 21.5002 12.3066C21.9815 12.3066 22.4432 12.4979 22.7836 12.8383C23.124 13.1787 23.3152 13.6403 23.3152 14.1217V22.5922C23.309 23.0716 23.1157 23.5297 22.7767 23.8687C22.4376 24.2078 21.9796 24.401 21.5002 24.4073Z" fill="#00668C"/>
<path d="M21.5002 31.6674C21.0207 31.6611 20.5627 31.4679 20.2236 31.1288C19.8846 30.7898 19.6913 30.3317 19.6851 29.8523V28.6422C19.6851 28.1608 19.8763 27.6992 20.2167 27.3588C20.5571 27.0184 21.0188 26.8271 21.5002 26.8271C21.9815 26.8271 22.4432 27.0184 22.7836 27.3588C23.124 27.6992 23.3152 28.1608 23.3152 28.6422V29.8523C23.309 30.3317 23.1157 30.7898 22.7767 31.1288C22.4376 31.4679 21.9796 31.6611 21.5002 31.6674Z" fill="black"/>
<path d="M21.5002 31.6674C21.0207 31.6611 20.5627 31.4679 20.2236 31.1288C19.8846 30.7898 19.6913 30.3317 19.6851 29.8523V28.6422C19.6851 28.1608 19.8763 27.6992 20.2167 27.3588C20.5571 27.0184 21.0188 26.8271 21.5002 26.8271C21.9815 26.8271 22.4432 27.0184 22.7836 27.3588C23.124 27.6992 23.3152 28.1608 23.3152 28.6422V29.8523C23.309 30.3317 23.1157 30.7898 22.7767 31.1288C22.4376 31.4679 21.9796 31.6611 21.5002 31.6674Z" fill="#00668C"/>
</svg>
