<svg width="39" height="44" viewBox="0 0 39 44" fill="none" xmlns="http://www.w3.org/2000/svg">
<path d="M32.0713 44H6.92845C5.09466 44 3.33599 43.2715 2.03931 41.9749C0.742627 40.6782 0.0141602 38.9195 0.0141602 37.0857V6.91429C0.0141602 5.0805 0.742627 3.32183 2.03931 2.02515C3.33599 0.728467 5.09466 0 6.92845 0H25.7856C26.2855 0.000440131 26.7649 0.199402 27.1182 0.553143L38.4324 11.9429C38.7862 12.2962 38.9851 12.7755 38.9856 13.2754V37.0857C38.9856 38.9195 38.2571 40.6782 36.9604 41.9749C35.6638 43.2715 33.9051 44 32.0713 44ZM6.92845 3.77143C6.09491 3.77143 5.29551 4.10255 4.70611 4.69195C4.11671 5.28135 3.78559 6.08075 3.78559 6.91429V37.0857C3.78559 37.9193 4.11671 38.7187 4.70611 39.3081C5.29551 39.8975 6.09491 40.2286 6.92845 40.2286H32.0713C32.9048 40.2286 33.7042 39.8975 34.2936 39.3081C34.883 38.7187 35.2142 37.9193 35.2142 37.0857V13.9794L25.0062 3.77143H6.92845Z" fill="black"/>
<path d="M32.0713 44H6.92845C5.09466 44 3.33599 43.2715 2.03931 41.9749C0.742627 40.6782 0.0141602 38.9195 0.0141602 37.0857V6.91429C0.0141602 5.0805 0.742627 3.32183 2.03931 2.02515C3.33599 0.728467 5.09466 0 6.92845 0H25.7856C26.2855 0.000440131 26.7649 0.199402 27.1182 0.553143L38.4324 11.9429C38.7862 12.2962 38.9851 12.7755 38.9856 13.2754V37.0857C38.9856 38.9195 38.2571 40.6782 36.9604 41.9749C35.6638 43.2715 33.9051 44 32.0713 44ZM6.92845 3.77143C6.09491 3.77143 5.29551 4.10255 4.70611 4.69195C4.11671 5.28135 3.78559 6.08075 3.78559 6.91429V37.0857C3.78559 37.9193 4.11671 38.7187 4.70611 39.3081C5.29551 39.8975 6.09491 40.2286 6.92845 40.2286H32.0713C32.9048 40.2286 33.7042 39.8975 34.2936 39.3081C34.883 38.7187 35.2142 37.9193 35.2142 37.0857V13.9794L25.0062 3.77143H6.92845Z" fill="#00668C"/>
<path d="M31.4428 42.1146H27.6714V26.4003H11.3286V42.1146H7.55713V25.7718C7.55713 24.9382 7.88825 24.1388 8.47765 23.5494C9.06705 22.96 9.86645 22.6289 10.7 22.6289H28.3C29.1335 22.6289 29.9329 22.96 30.5223 23.5494C31.1117 24.1388 31.4428 24.9382 31.4428 25.7718V42.1146Z" fill="black"/>
<path d="M31.4428 42.1146H27.6714V26.4003H11.3286V42.1146H7.55713V25.7718C7.55713 24.9382 7.88825 24.1388 8.47765 23.5494C9.06705 22.96 9.86645 22.6289 10.7 22.6289H28.3C29.1335 22.6289 29.9329 22.96 30.5223 23.5494C31.1117 24.1388 31.4428 24.9382 31.4428 25.7718V42.1146Z" fill="#00668C"/>
<path d="M20.6818 13.8286H10.7755C10.3496 13.8253 9.92846 13.7382 9.5362 13.5721C9.14395 13.4061 8.78825 13.1644 8.4894 12.8609C8.19055 12.5574 7.95441 12.1979 7.79447 11.8032C7.63453 11.4084 7.55391 10.986 7.55723 10.56V1.88574H11.3287V10.0572H20.1287V1.88574H23.9001V10.56C23.9034 10.986 23.8228 11.4084 23.6628 11.8032C23.5029 12.1979 23.2668 12.5574 22.9679 12.8609C22.6691 13.1644 22.3134 13.4061 21.9211 13.5721C21.5289 13.7382 21.1077 13.8253 20.6818 13.8286Z" fill="black"/>
<path d="M20.6818 13.8286H10.7755C10.3496 13.8253 9.92846 13.7382 9.5362 13.5721C9.14395 13.4061 8.78825 13.1644 8.4894 12.8609C8.19055 12.5574 7.95441 12.1979 7.79447 11.8032C7.63453 11.4084 7.55391 10.986 7.55723 10.56V1.88574H11.3287V10.0572H20.1287V1.88574H23.9001V10.56C23.9034 10.986 23.8228 11.4084 23.6628 11.8032C23.5029 12.1979 23.2668 12.5574 22.9679 12.8609C22.6691 13.1644 22.3134 13.4061 21.9211 13.5721C21.5289 13.7382 21.1077 13.8253 20.6818 13.8286Z" fill="#00668C"/>
</svg>
