<svg width="39" height="38" viewBox="0 0 39 38" fill="none" xmlns="http://www.w3.org/2000/svg">
<path d="M31.4401 23.8704C30.3279 23.8744 29.2325 24.1421 28.2437 24.6516C27.255 25.161 26.4012 25.8977 25.7524 26.8011L14.2684 21.1568C14.4922 20.4546 14.6093 19.7228 14.6157 18.9859C14.6093 18.2489 14.4922 17.5171 14.2684 16.815L25.7524 11.1707C26.7427 12.5141 28.1798 13.4603 29.8053 13.8391C31.4308 14.2179 33.1381 14.0044 34.6203 13.2371C36.1025 12.4698 37.2624 11.1989 37.8915 9.65299C38.5206 8.10705 38.5776 6.3874 38.0523 4.80318C37.527 3.21896 36.4538 1.87406 35.0257 1.01024C33.5976 0.146422 31.9082 -0.179662 30.2612 0.0906044C28.6142 0.360871 27.1176 1.20976 26.0404 2.48468C24.9633 3.75961 24.3762 5.37694 24.3847 7.04596C24.3899 7.41021 24.4262 7.77335 24.4933 8.13141L12.6185 14.1014C11.9685 13.413 11.1843 12.8652 10.3143 12.4918C9.44434 12.1184 8.50703 11.9274 7.56029 11.9305C5.68908 11.9305 3.89451 12.6738 2.57136 13.997C1.24822 15.3201 0.504883 17.1147 0.504883 18.9859C0.504883 20.8571 1.24822 22.6517 2.57136 23.9748C3.89451 25.298 5.68908 26.0413 7.56029 26.0413C8.50703 26.0444 9.44434 25.8534 10.3143 25.48C11.1843 25.1066 11.9685 24.5588 12.6185 23.8704L24.4933 29.8404C24.4249 30.2056 24.3886 30.576 24.3847 30.9475C24.3847 32.3429 24.7985 33.707 25.5738 34.8673C26.349 36.0275 27.4509 36.9319 28.7402 37.4659C30.0294 37.9999 31.448 38.1396 32.8166 37.8674C34.1852 37.5951 35.4424 36.9232 36.4291 35.9365C37.4158 34.9497 38.0878 33.6926 38.36 32.324C38.6322 30.9553 38.4925 29.5367 37.9585 28.2475C37.4245 26.9583 36.5202 25.8564 35.3599 25.0812C34.1997 24.3059 32.8356 23.8921 31.4401 23.8921V23.8704ZM31.4401 3.24689C32.1915 3.24689 32.926 3.4697 33.5508 3.88715C34.1755 4.3046 34.6625 4.89793 34.95 5.59212C35.2376 6.28631 35.3128 7.05017 35.1662 7.78712C35.0196 8.52407 34.6578 9.201 34.1265 9.7323C33.5952 10.2636 32.9183 10.6254 32.1813 10.772C31.4444 10.9186 30.6805 10.8434 29.9863 10.5558C29.2921 10.2683 28.6988 9.78136 28.2813 9.15661C27.8639 8.53185 27.6411 7.79734 27.6411 7.04596C27.6468 6.04014 28.0489 5.07714 28.7601 4.36591C29.4713 3.65468 30.4343 3.25259 31.4401 3.24689ZM7.56029 22.785C6.80891 22.785 6.0744 22.5621 5.44964 22.1447C4.82489 21.7272 4.33795 21.1339 4.05041 20.4397C3.76287 19.7455 3.68764 18.9817 3.83422 18.2447C3.98081 17.5078 4.34264 16.8308 4.87395 16.2995C5.40526 15.7682 6.08218 15.4064 6.81913 15.2598C7.55608 15.1132 8.31994 15.1885 9.01413 15.476C9.70832 15.7635 10.3017 16.2505 10.7191 16.8752C11.1365 17.5 11.3594 18.2345 11.3594 18.9859C11.3537 19.9917 10.9516 20.9547 10.2403 21.6659C9.52911 22.3772 8.56611 22.7793 7.56029 22.785ZM31.4401 34.7249C30.6888 34.7249 29.9542 34.5021 29.3295 34.0846C28.7047 33.6672 28.2178 33.0738 27.9303 32.3797C27.6427 31.6855 27.5675 30.9216 27.7141 30.1847C27.8607 29.4477 28.2225 28.7708 28.7538 28.2395C29.2851 27.7082 29.962 27.3463 30.699 27.1997C31.4359 27.0532 32.1998 27.1284 32.894 27.4159C33.5882 27.7035 34.1815 28.1904 34.599 28.8152C35.0164 29.4399 35.2392 30.1744 35.2392 30.9258C35.2335 31.9316 34.8314 32.8946 34.1202 33.6059C33.409 34.3171 32.446 34.7192 31.4401 34.7249Z" fill="black"/>
<path d="M31.4401 23.8704C30.3279 23.8744 29.2325 24.1421 28.2437 24.6516C27.255 25.161 26.4012 25.8977 25.7524 26.8011L14.2684 21.1568C14.4922 20.4546 14.6093 19.7228 14.6157 18.9859C14.6093 18.2489 14.4922 17.5171 14.2684 16.815L25.7524 11.1707C26.7427 12.5141 28.1798 13.4603 29.8053 13.8391C31.4308 14.2179 33.1381 14.0044 34.6203 13.2371C36.1025 12.4698 37.2624 11.1989 37.8915 9.65299C38.5206 8.10705 38.5776 6.3874 38.0523 4.80318C37.527 3.21896 36.4538 1.87406 35.0257 1.01024C33.5976 0.146422 31.9082 -0.179662 30.2612 0.0906044C28.6142 0.360871 27.1176 1.20976 26.0404 2.48468C24.9633 3.75961 24.3762 5.37694 24.3847 7.04596C24.3899 7.41021 24.4262 7.77335 24.4933 8.13141L12.6185 14.1014C11.9685 13.413 11.1843 12.8652 10.3143 12.4918C9.44434 12.1184 8.50703 11.9274 7.56029 11.9305C5.68908 11.9305 3.89451 12.6738 2.57136 13.997C1.24822 15.3201 0.504883 17.1147 0.504883 18.9859C0.504883 20.8571 1.24822 22.6517 2.57136 23.9748C3.89451 25.298 5.68908 26.0413 7.56029 26.0413C8.50703 26.0444 9.44434 25.8534 10.3143 25.48C11.1843 25.1066 11.9685 24.5588 12.6185 23.8704L24.4933 29.8404C24.4249 30.2056 24.3886 30.576 24.3847 30.9475C24.3847 32.3429 24.7985 33.707 25.5738 34.8673C26.349 36.0275 27.4509 36.9319 28.7402 37.4659C30.0294 37.9999 31.448 38.1396 32.8166 37.8674C34.1852 37.5951 35.4424 36.9232 36.4291 35.9365C37.4158 34.9497 38.0878 33.6926 38.36 32.324C38.6322 30.9553 38.4925 29.5367 37.9585 28.2475C37.4245 26.9583 36.5202 25.8564 35.3599 25.0812C34.1997 24.3059 32.8356 23.8921 31.4401 23.8921V23.8704ZM31.4401 3.24689C32.1915 3.24689 32.926 3.4697 33.5508 3.88715C34.1755 4.3046 34.6625 4.89793 34.95 5.59212C35.2376 6.28631 35.3128 7.05017 35.1662 7.78712C35.0196 8.52407 34.6578 9.201 34.1265 9.7323C33.5952 10.2636 32.9183 10.6254 32.1813 10.772C31.4444 10.9186 30.6805 10.8434 29.9863 10.5558C29.2921 10.2683 28.6988 9.78136 28.2813 9.15661C27.8639 8.53185 27.6411 7.79734 27.6411 7.04596C27.6468 6.04014 28.0489 5.07714 28.7601 4.36591C29.4713 3.65468 30.4343 3.25259 31.4401 3.24689ZM7.56029 22.785C6.80891 22.785 6.0744 22.5621 5.44964 22.1447C4.82489 21.7272 4.33795 21.1339 4.05041 20.4397C3.76287 19.7455 3.68764 18.9817 3.83422 18.2447C3.98081 17.5078 4.34264 16.8308 4.87395 16.2995C5.40526 15.7682 6.08218 15.4064 6.81913 15.2598C7.55608 15.1132 8.31994 15.1885 9.01413 15.476C9.70832 15.7635 10.3017 16.2505 10.7191 16.8752C11.1365 17.5 11.3594 18.2345 11.3594 18.9859C11.3537 19.9917 10.9516 20.9547 10.2403 21.6659C9.52911 22.3772 8.56611 22.7793 7.56029 22.785ZM31.4401 34.7249C30.6888 34.7249 29.9542 34.5021 29.3295 34.0846C28.7047 33.6672 28.2178 33.0738 27.9303 32.3797C27.6427 31.6855 27.5675 30.9216 27.7141 30.1847C27.8607 29.4477 28.2225 28.7708 28.7538 28.2395C29.2851 27.7082 29.962 27.3463 30.699 27.1997C31.4359 27.0532 32.1998 27.1284 32.894 27.4159C33.5882 27.7035 34.1815 28.1904 34.599 28.8152C35.0164 29.4399 35.2392 30.1744 35.2392 30.9258C35.2335 31.9316 34.8314 32.8946 34.1202 33.6059C33.409 34.3171 32.446 34.7192 31.4401 34.7249Z" fill="#00668C"/>
</svg>
