<svg width="51" height="40" viewBox="0 0 51 40" fill="none" xmlns="http://www.w3.org/2000/svg">
<path d="M4.5575 37.9309H0.500805V7.58657C0.486506 6.60252 0.662838 5.62527 1.01968 4.7109C1.37653 3.79653 1.90687 2.96302 2.58027 2.25821C3.25367 1.55339 4.05689 0.991137 4.94383 0.603701C5.83077 0.216265 6.78398 0.011273 7.74877 0.00048639H14.2665C14.5612 -0.00598825 14.8538 0.0522441 15.1244 0.171235C15.395 0.290225 15.6374 0.467191 15.8351 0.69013L23.0561 9.60032H36.335C37.3135 9.5964 38.283 9.79239 39.1861 10.1767C40.0892 10.5611 40.9076 11.126 41.5933 11.8382C42.2789 12.5504 42.8177 13.3954 43.178 14.3235C43.5383 15.2515 43.7128 16.2437 43.6911 17.2416V18.6209H39.6344V17.2416C39.6453 16.7927 39.5679 16.3462 39.407 15.9282C39.246 15.5103 39.0047 15.1295 38.6972 14.8082C38.3897 14.4868 38.0223 14.2315 37.6167 14.0572C37.211 13.8829 36.7752 13.7932 36.335 13.7934H22.0824C21.7876 13.7927 21.4965 13.7256 21.23 13.5969C20.9635 13.4681 20.7282 13.2809 20.5409 13.0485L13.32 4.13835H7.74877C6.87837 4.16719 6.05444 4.54587 5.45664 5.1918C4.85883 5.83774 4.53563 6.69856 4.5575 7.58657V37.9309Z" fill="black"/>
<path d="M4.5575 37.9309H0.500805V7.58657C0.486506 6.60252 0.662838 5.62527 1.01968 4.7109C1.37653 3.79653 1.90687 2.96302 2.58027 2.25821C3.25367 1.55339 4.05689 0.991137 4.94383 0.603701C5.83077 0.216265 6.78398 0.011273 7.74877 0.00048639H14.2665C14.5612 -0.00598825 14.8538 0.0522441 15.1244 0.171235C15.395 0.290225 15.6374 0.467191 15.8351 0.69013L23.0561 9.60032H36.335C37.3135 9.5964 38.283 9.79239 39.1861 10.1767C40.0892 10.5611 40.9076 11.126 41.5933 11.8382C42.2789 12.5504 42.8177 13.3954 43.178 14.3235C43.5383 15.2515 43.7128 16.2437 43.6911 17.2416V18.6209H39.6344V17.2416C39.6453 16.7927 39.5679 16.3462 39.407 15.9282C39.246 15.5103 39.0047 15.1295 38.6972 14.8082C38.3897 14.4868 38.0223 14.2315 37.6167 14.0572C37.211 13.8829 36.7752 13.7932 36.335 13.7934H22.0824C21.7876 13.7927 21.4965 13.7256 21.23 13.5969C20.9635 13.4681 20.7282 13.2809 20.5409 13.0485L13.32 4.13835H7.74877C6.87837 4.16719 6.05444 4.54587 5.45664 5.1918C4.85883 5.83774 4.53563 6.69856 4.5575 7.58657V37.9309Z" fill="#00668C"/>
<path d="M39.3639 40.0002H2.52905C2.18178 39.9973 1.84091 39.9047 1.53823 39.7311C1.23556 39.5574 0.980952 39.3083 0.798188 39.0071C0.625143 38.6959 0.53418 38.3443 0.53418 37.9865C0.53418 37.6287 0.625143 37.277 0.798188 36.9658L9.93928 19.0351C10.1176 18.7032 10.3795 18.4259 10.6981 18.2319C11.0167 18.0379 11.3803 17.9342 11.7513 17.9316H48.505C48.8522 17.9345 49.1931 18.0272 49.4958 18.2008C49.7985 18.3745 50.0531 18.6235 50.2358 18.9247C50.4089 19.2359 50.4998 19.5876 50.4998 19.9454C50.4998 20.3032 50.4089 20.6549 50.2358 20.9661L41.0947 38.8968C40.9233 39.2168 40.6741 39.4864 40.3709 39.6797C40.0678 39.8729 39.721 39.9833 39.3639 40.0002ZM5.85554 35.8624H38.1469L45.1785 22.0695H12.8872L5.85554 35.8624Z" fill="black"/>
<path d="M39.3639 40.0002H2.52905C2.18178 39.9973 1.84091 39.9047 1.53823 39.7311C1.23556 39.5574 0.980952 39.3083 0.798188 39.0071C0.625143 38.6959 0.53418 38.3443 0.53418 37.9865C0.53418 37.6287 0.625143 37.277 0.798188 36.9658L9.93928 19.0351C10.1176 18.7032 10.3795 18.4259 10.6981 18.2319C11.0167 18.0379 11.3803 17.9342 11.7513 17.9316H48.505C48.8522 17.9345 49.1931 18.0272 49.4958 18.2008C49.7985 18.3745 50.0531 18.6235 50.2358 18.9247C50.4089 19.2359 50.4998 19.5876 50.4998 19.9454C50.4998 20.3032 50.4089 20.6549 50.2358 20.9661L41.0947 38.8968C40.9233 39.2168 40.6741 39.4864 40.3709 39.6797C40.0678 39.8729 39.721 39.9833 39.3639 40.0002ZM5.85554 35.8624H38.1469L45.1785 22.0695H12.8872L5.85554 35.8624Z" fill="#00668C"/>
</svg>
