<svg width="150" height="150" viewBox="0 0 150 150" fill="none" xmlns="http://www.w3.org/2000/svg">
<ellipse cx="87.5" cy="62.5" rx="62.5" ry="62.5" fill="url(#paint0_linear_265_21215)"/>
<g filter="url(#filter0_bi_265_21215)">
<rect y="16.6665" width="133.333" height="133.333" rx="30" fill="#F1F1F1" fill-opacity="0.1"/>
<rect y="16.6665" width="133.333" height="133.333" rx="30" fill="url(#paint1_linear_265_21215)" fill-opacity="0.2"/>
<rect x="0.1" y="16.7665" width="133.133" height="133.133" rx="29.9" stroke="url(#paint2_linear_265_21215)" stroke-opacity="0.1" stroke-width="0.2"/>
</g>
<g filter="url(#filter1_i_265_21215)">
<path d="M48.9876 53.8711C45.7332 50.6167 40.4569 50.6167 37.2025 53.8711C33.9481 57.1254 33.9481 62.4018 37.2025 65.6562L54.8802 83.3339L37.2025 101.012C33.9481 104.266 33.9481 109.542 37.2025 112.797C40.4569 116.051 45.7332 116.051 48.9876 112.797L66.6653 95.119L84.3429 112.797C87.5973 116.051 92.8737 116.051 96.1281 112.797C99.3824 109.542 99.3824 104.266 96.1281 101.012L78.4504 83.3339L96.1281 65.6562C99.3824 62.4018 99.3824 57.1254 96.1281 53.8711C92.8737 50.6167 87.5973 50.6167 84.3429 53.8711L66.6653 71.5487L48.9876 53.8711Z" fill="white" fill-opacity="0.16"/>
</g>
<defs>
<filter id="filter0_bi_265_21215" x="-3" y="13.6665" width="139.333" height="139.333" filterUnits="userSpaceOnUse" color-interpolation-filters="sRGB">
<feFlood flood-opacity="0" result="BackgroundImageFix"/>
<feGaussianBlur in="BackgroundImageFix" stdDeviation="1.5"/>
<feComposite in2="SourceAlpha" operator="in" result="effect1_backgroundBlur_265_21215"/>
<feBlend mode="normal" in="SourceGraphic" in2="effect1_backgroundBlur_265_21215" result="shape"/>
<feColorMatrix in="SourceAlpha" type="matrix" values="0 0 0 0 0 0 0 0 0 0 0 0 0 0 0 0 0 0 127 0" result="hardAlpha"/>
<feOffset dy="0.5"/>
<feGaussianBlur stdDeviation="1"/>
<feComposite in2="hardAlpha" operator="arithmetic" k2="-1" k3="1"/>
<feColorMatrix type="matrix" values="0 0 0 0 1 0 0 0 0 1 0 0 0 0 1 0 0 0 0.4 0"/>
<feBlend mode="normal" in2="shape" result="effect2_innerShadow_265_21215"/>
</filter>
<filter id="filter1_i_265_21215" x="34.7617" y="51.4303" width="63.8071" height="64.3071" filterUnits="userSpaceOnUse" color-interpolation-filters="sRGB">
<feFlood flood-opacity="0" result="BackgroundImageFix"/>
<feBlend mode="normal" in="SourceGraphic" in2="BackgroundImageFix" result="shape"/>
<feColorMatrix in="SourceAlpha" type="matrix" values="0 0 0 0 0 0 0 0 0 0 0 0 0 0 0 0 0 0 127 0" result="hardAlpha"/>
<feOffset dy="0.5"/>
<feGaussianBlur stdDeviation="0.25"/>
<feComposite in2="hardAlpha" operator="arithmetic" k2="-1" k3="1"/>
<feColorMatrix type="matrix" values="0 0 0 0 1 0 0 0 0 1 0 0 0 0 1 0 0 0 0.4 0"/>
<feBlend mode="normal" in2="shape" result="effect1_innerShadow_265_21215"/>
</filter>
<linearGradient id="paint0_linear_265_21215" x1="25" y1="0" x2="172.246" y2="37.3885" gradientUnits="userSpaceOnUse">
<stop stop-color="#EF7171"/>
<stop offset="1" stop-color="#1D1C1C"/>
</linearGradient>
<linearGradient id="paint1_linear_265_21215" x1="0" y1="16.6665" x2="157.063" y2="56.5476" gradientUnits="userSpaceOnUse">
<stop stop-color="#EF7171"/>
<stop offset="1" stop-color="#8C0000"/>
</linearGradient>
<linearGradient id="paint2_linear_265_21215" x1="4.16667" y1="22.7271" x2="133.333" y2="22.7271" gradientUnits="userSpaceOnUse">
<stop stop-color="#7EE5FF"/>
<stop offset="1" stop-color="#41A9FF"/>
</linearGradient>
</defs>
</svg>
