<svg width="150" height="150" viewBox="0 0 150 150" fill="none" xmlns="http://www.w3.org/2000/svg">
<circle cx="87.5" cy="62.5" r="62.5" fill="url(#paint0_linear_265_21224)"/>
<g filter="url(#filter0_bi_265_21224)">
<rect y="16.6666" width="133.333" height="133.333" rx="30" fill="#F1F1F1" fill-opacity="0.1"/>
<rect y="16.6666" width="133.333" height="133.333" rx="30" fill="url(#paint1_linear_265_21224)" fill-opacity="0.2"/>
<rect x="0.1" y="16.7666" width="133.133" height="133.133" rx="29.9" stroke="url(#paint2_linear_265_21224)" stroke-opacity="0.1" stroke-width="0.2"/>
</g>
<g filter="url(#filter1_i_265_21224)">
<path d="M109.976 64.2259C113.23 60.9715 113.23 55.6951 109.976 52.4408C106.722 49.1864 101.445 49.1864 98.191 52.4408L59.0427 91.5891L39.2259 71.7723C35.9715 68.518 30.6952 68.518 27.4408 71.7723C24.1864 75.0267 24.1864 80.3031 27.4408 83.5574L52.9805 109.097C53.0352 109.155 53.091 109.212 53.1477 109.269C54.5969 110.718 56.4471 111.522 58.3411 111.681C58.4058 111.686 58.4705 111.691 58.5352 111.695C60.8346 111.835 63.181 111.027 64.938 109.27C64.999 109.209 65.0589 109.147 65.1177 109.084L109.976 64.2259Z" fill="white" fill-opacity="0.16"/>
</g>
<defs>
<filter id="filter0_bi_265_21224" x="-3" y="13.6666" width="139.333" height="139.333" filterUnits="userSpaceOnUse" color-interpolation-filters="sRGB">
<feFlood flood-opacity="0" result="BackgroundImageFix"/>
<feGaussianBlur in="BackgroundImageFix" stdDeviation="1.5"/>
<feComposite in2="SourceAlpha" operator="in" result="effect1_backgroundBlur_265_21224"/>
<feBlend mode="normal" in="SourceGraphic" in2="effect1_backgroundBlur_265_21224" result="shape"/>
<feColorMatrix in="SourceAlpha" type="matrix" values="0 0 0 0 0 0 0 0 0 0 0 0 0 0 0 0 0 0 127 0" result="hardAlpha"/>
<feOffset dy="0.5"/>
<feGaussianBlur stdDeviation="1"/>
<feComposite in2="hardAlpha" operator="arithmetic" k2="-1" k3="1"/>
<feColorMatrix type="matrix" values="0 0 0 0 1 0 0 0 0 1 0 0 0 0 1 0 0 0 0.4 0"/>
<feBlend mode="normal" in2="shape" result="effect2_innerShadow_265_21224"/>
</filter>
<filter id="filter1_i_265_21224" x="25" y="50" width="87.417" height="62.2103" filterUnits="userSpaceOnUse" color-interpolation-filters="sRGB">
<feFlood flood-opacity="0" result="BackgroundImageFix"/>
<feBlend mode="normal" in="SourceGraphic" in2="BackgroundImageFix" result="shape"/>
<feColorMatrix in="SourceAlpha" type="matrix" values="0 0 0 0 0 0 0 0 0 0 0 0 0 0 0 0 0 0 127 0" result="hardAlpha"/>
<feOffset dy="0.5"/>
<feGaussianBlur stdDeviation="0.25"/>
<feComposite in2="hardAlpha" operator="arithmetic" k2="-1" k3="1"/>
<feColorMatrix type="matrix" values="0 0 0 0 1 0 0 0 0 1 0 0 0 0 1 0 0 0 0.4 0"/>
<feBlend mode="normal" in2="shape" result="effect1_innerShadow_265_21224"/>
</filter>
<linearGradient id="paint0_linear_265_21224" x1="25" y1="0" x2="172.246" y2="37.3885" gradientUnits="userSpaceOnUse">
<stop stop-color="#71C4EF"/>
<stop offset="1" stop-color="#1D1C1C"/>
</linearGradient>
<linearGradient id="paint1_linear_265_21224" x1="0" y1="16.6666" x2="157.063" y2="56.5477" gradientUnits="userSpaceOnUse">
<stop stop-color="#71C4EF"/>
<stop offset="1" stop-color="#00668C"/>
</linearGradient>
<linearGradient id="paint2_linear_265_21224" x1="4.16667" y1="22.7272" x2="133.333" y2="22.7272" gradientUnits="userSpaceOnUse">
<stop stop-color="#7EE5FF"/>
<stop offset="1" stop-color="#41A9FF"/>
</linearGradient>
</defs>
</svg>
