<svg width="35" height="35" viewBox="0 0 35 35" fill="none" xmlns="http://www.w3.org/2000/svg">
<rect width="35" height="35" rx="17.5" fill="#D4EAF7"/>
<g clip-path="url(#clip0_1915_19092)">
<mask id="mask0_1915_19092" style="mask-type:luminance" maskUnits="userSpaceOnUse" x="1" y="7" width="25" height="25">
<path d="M1.49219 7.38281H25.4602V31.1268H1.49219V7.38281Z" fill="white"/>
</mask>
<g mask="url(#mask0_1915_19092)">
<mask id="mask1_1915_19092" style="mask-type:luminance" maskUnits="userSpaceOnUse" x="-3" y="3" width="33" height="33">
<path d="M-2.66406 25.0248L7.25844 3.51172L29.1402 13.6043L19.2179 35.1173L-2.66406 25.0248Z" fill="white"/>
</mask>
<g mask="url(#mask1_1915_19092)">
<mask id="mask2_1915_19092" style="mask-type:luminance" maskUnits="userSpaceOnUse" x="-3" y="3" width="33" height="33">
<path d="M-2.66406 25.0248L7.25844 3.51172L29.1402 13.6043L19.2179 35.1173L-2.66406 25.0248Z" fill="white"/>
</mask>
<g mask="url(#mask2_1915_19092)">
<mask id="mask3_1915_19092" style="mask-type:luminance" maskUnits="userSpaceOnUse" x="1" y="7" width="25" height="25">
<path d="M15.6611 29.6297C15.4397 29.8211 15.0556 29.7333 14.6872 29.8339C14.5705 29.8391 14.7403 29.7974 14.978 29.7528C15.2134 29.7128 15.5097 29.6323 15.6611 29.6297ZM15.2084 30.7768L15.2332 30.9005C15.459 30.8696 15.6698 30.8086 15.6614 30.7194C15.5377 30.748 15.4709 30.7856 15.405 30.8256C15.384 30.776 15.358 30.7372 15.2084 30.7768ZM20.5622 26.3864C20.7279 26.2134 20.874 26.0448 20.9257 25.9124C20.3852 26.5885 19.554 27.2716 19.0042 27.7493C19.1888 27.6137 19.3757 27.4807 19.5545 27.3366L20.0685 26.8787C20.2134 26.7378 20.3983 26.5602 20.5622 26.3864ZM23.81 14.6089C23.9389 14.8413 24.0284 15.077 24.1244 15.2984C24.2157 15.5215 24.309 15.7359 24.3822 15.9447C24.5187 16.3676 24.6593 16.7564 24.7646 17.1306C24.7666 17.1391 24.7698 17.1481 24.7716 17.1566C24.7605 17.3132 24.7284 17.4529 24.6677 17.5678C24.7316 17.8257 24.7573 18.0756 24.792 18.3145C24.822 18.5548 24.857 18.7844 24.8748 19.0058C24.8757 19.0119 24.8751 19.0174 24.8754 19.0212C24.8649 19.0393 24.8538 19.0553 24.8454 19.0778C24.8565 19.0868 24.8693 19.0965 24.8804 19.1055C24.9022 19.5118 24.9314 19.8907 24.9372 20.2497C24.937 20.6379 24.9597 21.0104 24.9705 21.3753C24.9757 21.7396 25.0002 22.1033 25.0408 22.4818C25.0691 22.1272 25.1032 21.7107 25.1408 21.2615C25.1493 20.8141 25.1855 20.3393 25.1843 19.8627C25.1814 19.7244 25.1825 19.5859 25.182 19.4465C25.1834 19.4473 25.1828 19.4488 25.1843 19.4494C25.2015 19.326 25.1965 19.2455 25.1834 19.1749C25.1837 18.9349 25.1822 18.6983 25.1706 18.4679C25.2522 18.7287 25.3409 18.9903 25.443 19.2563C25.3794 18.9072 25.3045 18.4956 25.2231 18.0523C25.2021 17.9703 25.184 17.8858 25.1642 17.8006L25.1647 17.7988C25.163 17.5886 25.1551 17.3867 25.1621 17.1977C24.9944 17.0822 25.1776 17.4868 25.0968 17.5008C25.0624 17.3441 25.028 17.1872 24.9883 17.03C24.9241 16.7147 24.8605 16.4111 24.7733 16.1253C24.7138 15.9112 24.6532 15.7041 24.5905 15.5058C24.5692 15.4445 24.545 15.3856 24.5205 15.327C24.4583 15.1152 24.4006 14.9058 24.3501 14.7054C24.2935 14.5021 24.234 14.3091 24.1917 14.1238C23.9922 14.053 24.3058 14.4298 24.1979 14.4371C23.9701 13.9894 23.7755 13.5644 23.5402 13.1873C23.4282 12.9966 23.3156 12.8113 23.2024 12.6355C23.084 12.4628 22.9545 12.3021 22.8279 12.1466C23.0647 12.6159 23.3331 13.0747 23.5512 13.4936C23.7642 13.9153 23.8805 14.3117 23.81 14.6089ZM19.4845 9.61818C19.6715 9.75759 19.8465 9.88593 20.0122 10.0099C20.1816 10.1301 20.3406 10.2432 20.4957 10.3529C20.6465 10.4681 20.797 10.5795 20.9505 10.6845C20.7944 10.5477 20.6258 10.4016 20.4555 10.2505C20.2761 10.1108 20.0906 9.96818 19.9112 9.82818C19.5534 9.54322 19.1692 9.33176 18.8577 9.20138C19.0838 9.3513 19.2909 9.48868 19.4845 9.61818ZM21.5688 27.6563C21.731 27.4778 21.9509 27.2821 22.1515 27.0776C22.351 26.8726 22.5117 26.6439 22.5928 26.4433C22.4272 26.641 22.221 26.8907 22.0075 27.0969C21.7975 27.3086 21.6204 27.507 21.5688 27.6563ZM15.3041 7.58322C15.538 7.61297 15.767 7.64068 15.9869 7.6678C15.7299 7.61384 15.473 7.56397 15.2186 7.5208C14.9614 7.49193 14.7076 7.46801 14.4603 7.45109C14.3363 7.44351 14.2153 7.43709 14.0945 7.43097C13.9752 7.42922 13.8562 7.43534 13.741 7.44118C13.5109 7.45313 13.2904 7.47326 13.0854 7.50068C13.5888 7.49105 14.0945 7.48055 14.5828 7.52868C14.8269 7.54793 15.0702 7.55726 15.3041 7.58322ZM12.1062 7.61676C12.3154 7.59313 12.4953 7.56193 12.6213 7.50768C12.2133 7.55376 11.7341 7.56863 11.4331 7.69288C11.5489 7.67743 11.665 7.6608 11.7784 7.64622C11.8919 7.63572 12.003 7.62609 12.1062 7.61676ZM17.6555 25.5123C17.5794 25.5496 17.4577 25.6231 17.3221 25.7147C17.1859 25.808 17.0208 25.8976 16.8741 26.009C16.8773 26.06 16.8619 26.1347 16.8954 26.0454C17.0226 25.927 17.2405 25.8675 17.3122 25.8398C17.1722 25.9159 17.0121 25.9909 17.0946 26.0763C17.1121 26.0425 17.1366 26.0177 17.1646 25.9944C17.1649 26.0061 17.1646 26.0154 17.1696 26.0291C17.1996 26.0507 17.3105 26.0084 17.409 25.9433C17.5035 25.8748 17.5884 25.7899 17.5797 25.7555C17.5458 25.7876 17.4939 25.8092 17.4373 25.8287C17.4612 25.8057 17.472 25.7783 17.4601 25.7421C17.4338 25.7701 17.3889 25.7969 17.3425 25.8232C17.7835 25.5029 17.808 25.4379 17.6555 25.5123ZM18.7869 25.8133C18.9458 25.6753 19.1937 25.5592 19.1246 25.3825C18.9598 25.5502 18.816 25.6841 18.7869 25.8133ZM9.69971 30.6016C9.82571 30.6214 9.94616 30.6371 10.0494 30.6485C9.92108 30.6293 9.791 30.6016 9.66762 30.5598C9.54541 30.5149 9.42612 30.4639 9.31471 30.4163C9.09041 30.3204 8.895 30.2361 8.74479 30.2276C8.85562 30.3341 9.07846 30.4292 9.32521 30.505C9.44712 30.5421 9.57516 30.5744 9.69971 30.6016ZM19.0082 27.0391C19.0115 27.0692 19.176 26.9849 19.4347 26.6509C19.2885 26.753 19.1847 26.8461 19.1132 26.9143C19.0418 26.9785 19.0053 27.0243 19.0082 27.0391ZM16.2523 28.5675C16.4847 28.4307 16.7863 28.3053 16.8945 28.1323C16.7292 28.2143 16.4874 28.293 16.3141 28.3502C16.1403 28.4091 16.0327 28.4491 16.128 28.4318C16.4107 28.3187 16.1321 28.4931 16.2523 28.5675ZM18.413 27.4463C18.1152 27.5011 17.9355 27.7954 17.5636 27.9535C17.8104 28.0501 18.2345 27.5029 18.413 27.4463ZM3.89933 25.9967C3.83721 25.9912 3.73541 25.9346 3.77421 25.8838C3.67533 25.7185 3.32737 25.2302 3.29616 25.1243C3.17396 24.9348 3.05437 24.7484 2.94179 24.5632C2.74754 24.2164 2.53229 23.8903 2.33425 23.5724C2.43983 23.6611 2.54891 23.7305 2.66296 23.9166C2.59179 23.7238 2.525 23.5386 2.46112 23.3548C2.40746 23.2236 2.35525 23.0929 2.30712 22.9619C2.17675 22.5591 2.04754 22.1663 1.93496 21.783C1.83696 21.3968 1.71241 21.027 1.60508 20.6691C1.68441 20.7817 1.77191 20.8774 1.83346 21.0865C1.832 21.0649 1.82966 21.0448 1.82821 21.0232C1.65408 20.1374 1.61004 19.2831 1.69141 18.3968C1.59779 18.4014 1.58758 18.6138 1.58525 18.8375C1.52604 18.9492 1.54033 18.7403 1.56046 18.4945C1.57591 18.2503 1.63221 17.9715 1.57533 17.9339C1.65991 17.994 1.72846 17.854 1.79 17.6005C1.81479 17.4806 1.84746 17.3357 1.88421 17.1776C1.97841 16.6056 2.12133 16.0526 2.32346 15.5023C2.26133 15.4888 2.21 15.5833 2.16537 15.7131C2.15225 15.7583 2.13796 15.8015 2.12396 15.8482C2.11987 15.8654 2.11433 15.882 2.10937 15.9007C2.05716 15.9564 2.06154 15.9053 2.09246 15.8053C2.06125 15.6746 2.27212 15.3168 2.31121 14.9595C2.20971 15.0061 2.12833 15.2275 2.03529 15.3389C2.06329 14.8034 2.48912 14.8093 2.6895 14.2428C2.61366 14.2706 2.53579 14.3814 2.46025 14.5331C2.44566 14.4616 2.50866 14.3251 2.42175 14.3155C2.73004 13.7129 3.09637 13.1333 3.51316 12.585C3.49041 12.6048 3.46854 12.6235 3.44812 12.6387C3.52366 12.4051 3.652 12.3044 3.80016 12.2146C3.89612 12.0971 3.99791 11.9839 4.09796 11.8701C4.11808 11.8185 4.135 11.7692 4.08571 11.7482C5.199 10.5153 6.60833 9.49918 8.19062 8.80997C8.5975 8.63409 9.01516 8.48009 9.44216 8.34738C9.72537 8.24938 10.0109 8.15838 10.3017 8.0773C10.3711 8.07147 10.4481 8.06126 10.5231 8.05193C10.7147 7.92505 11.2409 7.92009 11.5486 7.84688C11.5171 7.87051 11.4681 7.88976 11.4121 7.90376C12.0365 7.81305 12.6703 7.76434 13.3117 7.76113C13.3802 7.77368 13.4578 7.78301 13.531 7.7938C13.7332 7.72701 14.1815 7.83288 14.4979 7.85709C14.2932 7.81772 14.1129 7.75005 14.0945 7.6748C14.3885 7.58176 14.8071 7.80168 15.0888 7.85534C15.0002 7.90784 14.7695 7.90405 14.5516 7.86847C14.3661 7.92388 13.9341 7.81597 13.6104 7.80751C13.6375 7.81072 13.6602 7.81538 13.6874 7.8183C13.8195 7.84134 13.9612 7.86468 14.1074 7.89005C14.3985 7.94459 14.7181 7.96997 15.0457 8.04872C15.3729 8.12338 15.7191 8.1823 16.0598 8.28584C16.399 8.39288 16.7464 8.4903 17.0739 8.62622C17.3373 8.72859 17.5954 8.84176 17.8492 8.96455C17.8506 8.96543 17.8538 8.96688 17.8553 8.96747C17.8649 8.97184 17.8742 8.97622 17.8821 8.98001C17.9151 8.99518 17.9495 9.01093 17.9819 9.02784C19.0852 9.54234 20.1277 10.2059 21.0324 11.0479C22.9151 12.7752 24.2763 15.1418 24.6596 17.8C24.6234 17.7796 24.5937 17.7411 24.5692 17.6784C24.6739 18.2772 24.7319 18.8865 24.7372 19.5022C24.7538 19.6851 24.7704 19.8679 24.787 20.047C24.7967 20.1829 24.8092 20.3162 24.8104 20.4501C24.8083 20.5825 24.8042 20.7158 24.7967 20.8476C24.7404 20.7301 24.7337 20.5423 24.7243 20.3398C24.7217 20.3121 24.7208 20.285 24.7185 20.2573C24.7057 20.4626 24.6896 20.6668 24.6651 20.8727C24.6182 20.8261 24.5922 20.7456 24.6129 20.5895C24.61 20.5997 24.6088 20.6105 24.6077 20.6213C24.6007 20.6942 24.5954 20.768 24.5852 20.8433C24.5619 21.0591 24.538 21.2805 24.5152 21.4948C24.4802 21.7072 24.4379 21.9105 24.3985 22.0904C24.4099 21.8842 24.44 21.662 24.4627 21.4228C24.416 21.706 24.3784 21.9857 24.3478 22.2669C24.3 22.5399 24.2533 22.81 24.2075 23.0745C24.1807 23.2069 24.1594 23.3399 24.125 23.4686C24.0885 23.5966 24.0509 23.7241 24.0092 23.8474C23.985 23.7182 24.0264 23.5374 24.0713 23.3373C24.1089 23.1355 24.1594 22.9188 24.1807 22.7324C24.0765 22.9911 23.9689 23.3851 23.8062 23.7882C23.728 23.9903 23.6472 24.1986 23.5699 24.399C23.4818 24.5947 23.3885 24.7802 23.303 24.9444C23.39 24.6778 23.5186 24.3905 23.6282 24.0662C23.7388 23.7439 23.8934 23.4131 23.9925 23.0532C23.7688 23.2702 23.5451 23.6316 23.3415 23.9985C23.2902 24.0892 23.238 24.1814 23.1875 24.2703C23.1292 24.3558 23.0738 24.4386 23.0198 24.5186C22.9087 24.6769 22.7999 24.8134 22.6923 24.9103C22.7509 24.8575 22.715 24.8161 22.6445 24.812C22.561 25.0135 22.3297 25.3087 22.2239 25.5169C22.2224 25.3679 22.4572 25.0648 22.6051 24.8149C22.5403 24.8231 22.4601 24.8566 22.3898 24.9345C22.3764 24.9473 22.365 24.9593 22.3537 24.9712C22.3615 24.9502 22.3618 24.9292 22.3519 24.9135C22.3755 24.9528 21.9672 25.1281 22.1302 24.8779C21.9042 25.1696 21.6712 25.4277 21.4434 25.6654C21.2036 25.892 20.956 26.0901 20.716 26.2802C20.9038 26.03 21.3436 25.6919 21.6507 25.2775C21.9818 24.8817 22.1868 24.4372 22.0407 24.168C21.8246 24.2645 21.6198 24.3701 21.4017 24.5416C21.1715 24.7061 20.9528 24.9575 20.6839 25.3343C20.599 25.3198 20.522 25.2556 20.4225 25.3186C20.3738 25.2673 20.6605 25.1121 20.7393 24.9044C20.76 24.8266 20.7028 24.7851 20.7967 24.6723C20.7743 24.6676 20.7495 24.6714 20.7265 24.6761C20.6442 24.8131 20.5293 25.0001 20.4602 25.1378C20.3867 25.1153 20.4316 25.0427 20.4812 24.9683C20.2884 25.1631 20.1752 25.3262 20.0448 25.4851C19.92 25.6485 19.801 25.8278 19.6015 26.0501C19.5639 25.9623 19.4679 26.0626 19.3807 26.1367C19.5435 25.9241 19.7736 25.619 20.0515 25.3341C20.1912 25.1926 20.3137 25.0301 20.447 24.8898C20.503 24.8263 20.5614 24.7656 20.6191 24.7064C20.5415 24.7428 20.4625 24.7942 20.3846 24.8228C20.4196 24.66 20.9604 24.4582 20.6789 24.2426C20.5719 24.1855 20.4485 24.4448 20.3289 24.6049C20.2589 24.5422 20.3552 24.4074 20.4584 24.2666C20.3333 24.2281 20.221 24.2485 20.167 24.2085C20.1008 24.3112 20.0262 24.3987 19.9891 24.4252C19.9687 24.3949 19.995 24.3462 19.9608 24.3208C19.4358 25.0176 19.9098 24.2668 20.1417 24.0615C20.1422 24.0598 20.1414 24.0574 20.1428 24.0545C19.9457 24.135 19.8485 24.1928 19.7587 24.2598C19.6718 24.3284 19.5834 24.4001 19.407 24.49C19.4026 24.4252 19.4781 24.3476 19.5624 24.2686C19.6426 24.1855 19.7368 24.1053 19.7861 24.0516C19.7899 23.9734 19.7914 23.8961 19.7896 23.8209C19.6132 23.8445 19.5405 24.266 19.4291 24.2642C19.3854 24.2231 19.3407 24.1834 19.2882 24.2353C19.3212 24.0773 19.6172 23.9758 19.7549 23.7232C19.6992 23.7031 19.5429 23.8938 19.6846 23.6774C19.5685 23.7019 19.4519 23.9796 19.3352 24.0382C19.3813 23.9011 19.519 23.6275 19.6444 23.4341C19.5717 23.3396 19.5047 23.4933 19.4364 23.5173C19.3562 23.6211 19.3571 23.6937 19.4396 23.7378C19.2142 23.8468 19.0794 23.8002 18.9234 23.9527C18.7682 23.9632 19.0208 23.7045 18.8598 23.8302C18.8397 23.7086 18.9797 23.5044 19.1342 23.3017C19.1727 23.251 19.2098 23.1993 19.2462 23.1495C19.2777 23.0976 19.3057 23.0453 19.3302 22.9961C19.3661 22.9228 19.3918 22.8587 19.3979 22.8041C19.2976 22.9885 19.1888 23.1667 19.0727 23.3437C19.0602 23.3627 19.047 23.3834 19.0345 23.4023C18.9983 23.456 18.9613 23.5073 18.9234 23.5604C18.8855 23.6135 18.8478 23.6666 18.8099 23.7197C18.7959 23.7378 18.7825 23.7544 18.7682 23.7728C18.4762 24.1543 18.1505 24.5011 17.7967 24.8099C17.7876 24.8172 17.7786 24.8245 17.771 24.8324C17.692 24.9006 17.6112 24.9683 17.5304 25.0319C17.5032 25.0538 17.477 25.0739 17.4505 25.094C17.3877 25.1433 17.3236 25.1917 17.2585 25.2378C17.213 25.2702 17.1684 25.3011 17.1215 25.3326C17.0745 25.3644 17.0267 25.3976 16.9797 25.4291C16.9631 25.4405 16.9465 25.4519 16.9304 25.4618C16.9412 25.4799 16.999 25.4533 17.1077 25.3702C17.097 25.5175 16.7744 25.5936 16.6714 25.6394C16.7776 25.892 17.0071 25.5391 17.155 25.5443C16.987 25.785 16.6478 25.8474 16.4912 26.0343C16.5734 26.0131 16.7974 25.9069 17.0246 25.7736C16.9246 25.8666 16.8266 26.0005 16.7143 26.1201C16.6883 26.1481 16.6603 26.1752 16.6309 26.1977C16.7548 26.1481 16.8756 26.1049 16.9572 26.0644C16.95 26.0839 16.9365 26.1006 16.9249 26.1181C16.9325 26.1178 16.94 26.1137 16.9479 26.1134C16.8024 26.4083 16.3284 26.3954 16.0665 26.6991C16.1578 26.7775 16.2809 26.5106 16.4232 26.578C16.3914 26.5273 16.5186 26.4619 16.6755 26.4068C16.8339 26.3523 17.0135 26.2808 17.1075 26.2633C16.8035 26.4888 16.5399 26.6013 16.2806 26.7387C16.152 26.8111 16.0146 26.8694 15.8641 26.9353C15.7156 27.0059 15.5523 27.0829 15.3647 27.1716C15.7926 27.0243 16.161 27.0476 16.6848 26.8283C16.3631 26.8035 16.8307 26.7145 16.9403 26.7536C16.9476 26.6466 17.1002 26.5474 17.2921 26.4494C17.3116 26.485 17.2393 26.5182 17.2008 26.5521C17.9244 26.2878 18.5979 25.6785 19.3547 24.9458C19.2524 25.0891 19.143 25.2273 19.0313 25.3623C18.9137 25.493 18.7828 25.6076 18.6565 25.7246C18.6151 25.7646 18.5722 25.8001 18.5308 25.836C18.6337 25.7654 18.7288 25.7123 18.7685 25.7211C18.8545 25.654 18.8248 25.6117 18.8855 25.5502C18.9534 25.5435 18.8782 25.661 18.7676 25.7893C18.6588 25.918 18.4967 26.0338 18.4363 26.0574C18.4252 26.0236 18.4634 25.9821 18.436 25.9506C18.0729 26.2344 18.0857 26.1983 18.2175 26.0819C18.098 26.1679 17.9772 26.2476 17.86 26.3283C17.7313 26.4214 17.5951 26.494 17.465 26.5693C17.4003 26.6191 17.3367 26.6699 17.2693 26.7168C17.1232 26.8113 16.9669 26.8898 16.814 26.9697C16.7242 27.0196 16.6341 27.0619 16.5419 27.1013C16.4979 27.1304 16.4547 27.1581 16.4139 27.1888C16.6434 27.108 16.8569 27.0333 17.0579 26.9487C17.1395 26.8875 17.2434 26.8268 17.3635 26.7565C17.3665 26.7749 17.363 26.7906 17.3597 26.8061C17.3621 26.8052 17.3644 26.8046 17.3673 26.802C17.512 26.7279 17.652 26.6553 17.7923 26.583C17.9273 26.5004 18.0583 26.4103 18.1948 26.3211C18.7376 25.962 19.2874 25.4881 19.9285 24.7175C19.8404 24.9129 19.6983 25.0966 19.5362 25.2789C19.3772 25.4627 19.2028 25.6508 19.0045 25.8127C18.6285 26.1612 18.2082 26.4529 17.895 26.7769C17.8311 26.7912 17.8352 26.7664 17.8226 26.7358C17.8066 26.7457 17.7914 26.7577 17.7757 26.7676C17.5732 26.9047 17.3586 27.04 17.1235 27.1447C17.0124 27.2039 16.8995 27.2588 16.786 27.311C16.8878 27.3008 16.9879 27.3107 16.9677 27.2558C17.1719 27.2092 16.9488 27.4166 16.8339 27.4588C16.9211 27.5008 17.1045 27.4749 16.9062 27.612C16.9683 27.6922 17.1471 27.6015 17.2413 27.6408C17.2839 27.5939 17.3291 27.5539 17.4149 27.5041L17.6663 27.3553C17.8401 27.2258 18.0408 27.0841 18.2595 26.9528C18.4313 26.8528 18.5906 26.7265 18.7568 26.6258C18.919 26.5179 19.0858 26.4293 19.2229 26.3383C19.2748 26.3202 18.8954 26.6556 18.7072 26.8659C18.6906 26.8563 18.6825 26.8449 18.6807 26.8326C18.4488 27.0706 18.1449 27.2427 17.6855 27.4953C17.6695 27.5052 17.6567 27.5163 17.6409 27.5262C17.64 27.5239 17.6383 27.5233 17.6392 27.5216C17.6263 27.5291 17.6155 27.5356 17.601 27.5423C17.6132 27.5326 17.6228 27.5236 17.6351 27.514C17.617 27.4621 17.5566 27.4816 17.4857 27.5157C17.1955 27.7855 16.915 27.9436 16.625 28.1183C16.4719 28.1944 16.3141 28.272 16.1426 28.3589C15.9705 28.447 15.7859 28.5503 15.5669 28.6494C15.3222 28.5231 14.9226 28.9064 14.4685 28.9253C14.5361 28.9186 14.7616 28.9539 14.9897 28.9428C15.1055 28.9315 15.2201 28.9102 15.314 28.8717C15.2644 28.8717 15.2207 28.8629 15.1845 28.8384C15.2883 28.8236 15.3828 28.7967 15.47 28.7646C15.484 28.7463 15.496 28.7291 15.5039 28.7078C15.5485 28.7057 15.5657 28.7136 15.5715 28.7258C15.7734 28.6436 15.9446 28.5532 16.1353 28.5686C16.0187 28.5739 15.7655 28.7352 15.5374 28.8203C15.536 28.8236 15.5362 28.8273 15.5354 28.8291C15.7422 28.7358 15.7754 28.713 15.9189 28.7699C16.0277 28.7153 15.8337 28.7191 15.9659 28.6637C16.0986 28.6736 16.2202 28.6859 16.5416 28.6133C16.6081 28.5888 16.6746 28.5681 16.7402 28.5412C16.7219 28.4946 16.6513 28.5115 16.5717 28.5357C16.9835 28.3942 17.3901 28.2143 17.792 28.0034C17.7541 28.0069 17.7229 27.9964 17.7086 27.9614C17.8702 27.8835 18.0195 27.7829 18.172 27.6875C18.1583 27.7211 18.0711 27.8237 17.974 27.9066C18.828 27.4338 19.6546 26.8058 20.4365 26.0066C20.5488 26.0603 20.1247 26.2989 20.2324 26.3543C20.4838 26.2266 20.8387 25.7293 21.0811 25.4183C21.0044 25.267 20.8495 25.6316 20.7294 25.7436C20.5611 25.8605 21.0654 25.1923 21.1532 25.1795C21.1712 25.3343 21.0286 25.5694 20.837 25.82C20.6299 26.058 20.3718 26.3082 20.1813 26.5308C20.186 26.4756 20.1895 26.4223 20.1443 26.3841C20.0927 26.4424 20.0364 26.4981 19.9777 26.5512C20.0434 26.6194 20.0722 26.5777 20.006 26.8119C19.9699 26.8618 19.9247 26.877 19.8815 26.8799C19.8535 26.907 19.8258 26.9344 19.7943 26.9616C19.6458 27.0931 19.4422 27.2127 19.3442 27.3218C19.4011 27.2068 19.4708 27.1342 19.5507 27.0683C19.5102 27.0572 19.4889 27.0246 19.3524 27.1141C19.3154 27.2646 19.1278 27.4446 18.8898 27.6301C18.6276 27.8062 18.3129 27.9809 18.0729 28.1463C18.0842 28.1133 18.0933 28.0816 18.0921 28.0506C18.0282 28.0859 17.9644 28.1212 17.9005 28.1565C17.9256 28.1927 17.9262 28.2119 17.8322 28.3706C17.6654 28.5051 17.4986 28.2224 17.5277 28.4776C17.3134 28.5541 17.3344 28.4876 17.2714 28.4718C17.01 28.6045 16.7726 28.7314 16.5959 28.8381C16.6029 28.8148 16.6 28.8002 16.5927 28.7912C16.3803 28.8761 16.1216 28.9662 15.8367 29.0309C15.673 29.0715 15.5071 29.1132 15.34 29.154C15.3376 29.1549 15.3353 29.1558 15.3335 29.1549C15.3685 29.1826 15.4114 29.2176 15.3157 29.2724C15.3481 29.3176 15.4073 29.3089 15.47 29.2844C15.4625 29.2847 15.454 29.2867 15.4432 29.2893C15.4919 29.2164 15.5651 29.2027 15.6453 29.2016C15.6853 29.1858 15.7145 29.18 15.7244 29.2039C15.8136 29.2088 15.9081 29.2141 15.9953 29.1782C15.9609 29.2899 15.827 29.2663 15.7252 29.2517C15.7244 29.2532 15.7261 29.2541 15.7252 29.2555C15.6754 29.2686 15.6386 29.2823 15.6065 29.294C15.61 29.3033 15.6127 29.3141 15.6194 29.3284C15.5885 29.3334 15.5704 29.327 15.5546 29.3159C15.447 29.3672 15.4476 29.4075 15.3548 29.4352C15.23 29.4291 15.1626 29.3731 15.1524 29.2675C14.9074 29.3068 14.8438 29.3786 14.7849 29.4655C15.1133 29.2818 14.8062 29.5553 15.1868 29.432C15.1775 29.481 15.0381 29.4985 15.0465 29.5501C15.2568 29.586 15.6856 29.4241 15.9376 29.4145C15.5908 29.5268 15.1445 29.6808 14.7601 29.7586C14.3783 29.8473 14.0732 29.9392 14.0277 30.0001C13.9986 30.1008 13.587 29.9567 13.9365 29.9217C13.8075 29.9042 13.2715 30.0873 12.8555 30.0477C12.9611 30.1081 13.109 30.1381 12.9384 30.2192C13.3123 30.2717 13.219 30.2136 13.5316 30.1597C13.4885 30.195 13.4465 30.2326 13.452 30.2906C13.7302 30.2323 13.6255 30.1746 13.8807 30.2656C12.8847 30.3811 11.6524 30.3233 10.4575 30.0655C9.86683 29.9587 9.28787 29.7563 8.73896 29.5545C8.4715 29.4407 8.20958 29.3238 7.95991 29.2086C7.70646 29.0974 7.48362 28.9528 7.26166 28.8311C7.15462 28.8524 7.09658 28.7305 7.01054 28.6203C6.91575 28.5613 6.82562 28.5007 6.73375 28.4394C6.69991 28.4674 6.78071 28.6019 6.58383 28.4426C6.52871 28.3639 6.43041 28.2633 6.30762 28.1495C6.28633 28.1338 6.26416 28.1198 6.24287 28.1043C6.01362 27.9243 5.79196 27.7441 5.57991 27.5679C5.36408 27.3961 5.185 27.1975 5.00329 27.0222C4.88458 27.0149 4.86737 26.8586 4.80175 26.7198C4.73525 26.6492 4.66729 26.5777 4.60166 26.5057C4.5515 26.5109 4.60487 26.6842 4.45116 26.4724C4.41558 26.3721 4.33625 26.2344 4.23271 26.0746C4.20383 26.0384 4.17262 26.0028 4.14579 25.9658C4.00725 25.7876 3.8725 25.617 3.75204 25.4528C3.6415 25.2839 3.54146 25.1252 3.45425 24.9841C3.72725 25.4986 4.04254 25.9296 4.34325 26.3596C4.67691 26.7632 4.99571 27.1748 5.40491 27.5388C4.80991 27.1024 4.32546 26.5553 3.89933 25.9967ZM19.7263 26.9438C19.7482 26.9251 19.7707 26.905 19.7934 26.8851C19.7444 26.8796 19.7144 26.8828 19.7263 26.9438ZM15.7349 27.7193C15.7142 27.7269 15.692 27.7339 15.6707 27.7429C15.6937 27.7633 15.7197 27.7733 15.7486 27.7808C15.7357 27.7674 15.7419 27.7456 15.7349 27.7193ZM4.65446 11.7535C4.72533 11.6738 4.79271 11.5983 4.84608 11.5277C4.77696 11.591 4.7125 11.6526 4.64775 11.7144C4.64541 11.736 4.64658 11.75 4.65446 11.7535ZM14.2622 28.9636C14.1421 29.0053 14.0006 29.0353 13.8653 29.0683C13.8673 29.0767 13.8667 29.082 13.8717 29.0919C14.0747 29.0846 14.32 29.0569 14.3145 28.9533C14.2999 28.9563 14.2806 28.9606 14.2622 28.9636ZM12.8185 29.1415C12.8614 29.1307 12.9005 29.1164 12.9331 29.0951C12.8719 29.0957 12.8062 29.0936 12.726 29.0817C12.747 29.1065 12.78 29.1254 12.8185 29.1415ZM12.995 29.1636C13.0011 29.1628 13.0063 29.1633 13.0133 29.1645C13.0795 29.1531 13.1282 29.147 13.17 29.1435C13.1805 29.1409 13.1921 29.1403 13.2038 29.1362C13.4047 29.0881 13.6072 29.0044 13.7092 28.9732C13.3963 28.9621 13.2691 29.056 13.0536 29.0861C13.0448 29.1088 13.004 29.1356 12.995 29.1636ZM14.1021 29.5831C14.2809 29.5588 14.4116 29.5314 14.3104 29.5075C14.1374 29.5516 13.9933 29.5384 13.877 29.5306C13.7606 29.5265 13.6696 29.5338 13.5946 29.6137C13.6917 29.6014 13.9216 29.5988 14.1021 29.5831ZM14.4186 29.7061L14.9838 29.6163L14.9672 29.5326C14.7896 29.5953 14.332 29.5556 14.4186 29.7061ZM19.2349 27.3113C19.2331 27.3028 19.2285 27.3005 19.2258 27.2938C19.1695 27.3495 19.0966 27.4131 19.0059 27.4816C18.8131 27.6309 18.5573 27.81 18.2627 27.9655C18.5433 27.8567 18.9517 27.5251 19.2349 27.3113ZM16.5848 27.4373C16.5868 27.4209 16.5947 27.4075 16.6023 27.3956C16.3205 27.523 16.0458 27.6438 15.8081 27.7876C15.9002 27.7861 16.0134 27.7429 16.1385 27.6866C16.2362 27.64 16.3459 27.5918 16.4541 27.535C16.5623 27.4781 16.6749 27.4236 16.7907 27.3874C16.7601 27.3466 16.663 27.4084 16.5848 27.4373ZM17.7354 26.6766C17.7124 26.7023 17.6762 26.7311 17.6322 26.7644C17.6742 26.7399 17.7165 26.7136 17.759 26.6877C17.7512 26.6839 17.7456 26.6795 17.7354 26.6766ZM16.5784 26.2992C16.5049 26.3225 16.4305 26.3473 16.3558 26.3773C16.4235 26.3916 16.4973 26.3514 16.5784 26.2992ZM16.3179 26.3523C16.3138 26.3526 16.3109 26.3549 16.3071 26.3549C16.3086 26.3558 16.3103 26.3563 16.3118 26.3572C16.3124 26.3555 16.3156 26.3531 16.3179 26.3523ZM14.6324 8.1438C14.4037 8.11463 14.2162 8.10413 14.2307 8.11843C14.2322 8.11901 14.2337 8.11988 14.2354 8.12047C14.4052 8.13213 14.5361 8.14118 14.6324 8.1438ZM11.8423 8.02801C11.784 8.02218 11.6489 8.03413 11.4698 8.06768C11.6489 8.05105 11.7705 8.0388 11.8461 8.02801C11.8437 8.02888 11.8437 8.02888 11.8423 8.02801ZM10.6015 8.0423C10.6161 8.03968 10.6292 8.03997 10.6441 8.03734C10.7363 8.01868 10.8311 8.00351 10.9224 7.98659C10.8107 8.00176 10.6998 8.01926 10.6015 8.0423ZM2.39141 15.0499C2.45354 15.0385 2.53462 14.9294 2.62766 14.7608C2.70204 14.6162 2.79741 14.4336 2.90416 14.2315C2.92779 14.1758 2.94646 14.1233 2.95491 14.0795C2.95346 14.1037 2.95637 14.1183 2.95754 14.132C3.00216 14.048 3.04883 13.9628 3.09637 13.8762C3.03133 13.8689 3.232 13.5408 3.52571 13.1106C3.59396 13.0164 3.67125 12.919 3.75029 12.8181C3.87366 12.6369 3.99966 12.4876 4.11458 12.3709C4.142 12.3359 4.17116 12.3018 4.19858 12.2671C4.21141 12.2519 4.22396 12.2368 4.23825 12.2225C4.10408 12.2653 4.43425 11.9833 4.59612 11.7646C4.49696 11.8599 4.39837 11.9536 4.30679 12.0446C4.142 12.2123 4.00287 12.3861 3.86258 12.55C3.73133 12.7104 3.60066 12.8653 3.48662 13.0222C3.45862 13.0663 3.43208 13.1074 3.40321 13.1532C3.40175 13.1526 3.40233 13.1508 3.40146 13.1485C3.316 13.2766 3.23083 13.4031 3.15062 13.5318C3.04912 13.6983 2.94208 13.8602 2.85166 14.0358C2.76416 14.2125 2.67783 14.3916 2.59237 14.5809C2.51887 14.7279 2.45354 14.8863 2.39141 15.0499ZM3.89554 26.3931C3.76341 26.2581 3.58696 25.8853 3.48721 25.9078C3.554 26.0186 3.52016 26.0714 3.57762 26.1781C3.64879 26.0775 3.81154 26.4266 3.89554 26.3931ZM20.0095 26.3505C20.0874 26.2435 20.149 26.1102 20.1545 26.0728C20.0326 26.205 19.9147 26.3412 19.7777 26.457C19.8316 26.5255 19.9317 26.4576 20.0095 26.3505ZM21.6566 24.5754C21.5834 24.7796 21.4892 24.9097 21.4014 25.0252C21.3092 25.1389 21.231 25.2419 21.1978 25.4131C21.2634 25.2836 21.4282 25.1159 21.5376 24.9491C21.6484 24.7831 21.7266 24.6343 21.6566 24.5754ZM17.9241 25.3965C18.1315 25.1453 18.5331 25.0546 18.5521 24.8196C18.3887 24.9671 17.9988 25.185 17.9241 25.3965ZM18.9636 24.3692C18.8866 24.5072 18.55 24.7003 18.6959 24.7886C18.7434 24.5821 19.0459 24.5008 18.9636 24.3692ZM19.1264 29.5903C19.3297 29.4594 19.5925 29.3273 19.8401 29.1823C20.0848 29.0362 20.3003 28.8577 20.4304 28.6833C20.2192 28.8317 19.955 29.0201 19.6948 29.1631C19.4382 29.315 19.2168 29.4606 19.1264 29.5903ZM12.3518 31.0571C12.344 31.0041 12.3297 30.9612 12.1757 30.9606L12.1672 31.0863C12.3938 31.1146 12.6129 31.1108 12.6292 31.0213C12.5023 31.016 12.4262 31.0361 12.3518 31.0571ZM20.307 27.6951C20.4879 27.493 20.8685 27.2171 20.9458 27.0415C21.1704 26.823 21.3576 26.6107 21.3652 26.4998C21.2328 26.6463 21.0219 26.8557 20.8172 27.0639C20.6118 27.2701 20.3893 27.4551 20.2732 27.6035C20.3555 27.5326 20.4672 27.4472 20.5873 27.3521C20.6282 27.3215 20.6687 27.2868 20.7104 27.2547C20.529 27.4166 20.3368 27.5813 20.307 27.6951ZM17.3274 28.0693C17.16 28.1308 17.0357 28.1936 16.95 28.2396C16.8616 28.2828 16.817 28.3175 16.8152 28.3338C16.8091 28.3633 16.9887 28.3245 17.3274 28.0693ZM16.6253 29.0175C17.0208 28.8247 17.535 28.5858 18.0338 28.3131C18.0096 28.3038 17.9862 28.2968 17.9399 28.3231C18.0072 28.1314 18.2727 28.2043 18.4456 28.0728C18.445 28.0743 18.4442 28.0757 18.445 28.0781C18.625 27.9687 18.8003 27.8573 18.959 27.74C18.8744 27.8535 18.6903 27.9798 18.4847 28.104C18.4634 28.1171 18.4427 28.1285 18.4217 28.1416C18.403 28.1653 18.3724 28.1819 18.3395 28.1912C18.1779 28.2863 18.0148 28.375 17.8789 28.4511L17.2641 28.76C17.055 28.8539 16.8394 28.9335 16.6253 29.0175ZM18.0971 28.2793C18.1359 28.2574 18.1747 28.2353 18.2135 28.2131C18.137 28.2216 18.0778 28.2306 18.0971 28.2793ZM7.45008 29.2858C7.29754 29.2115 7.23425 29.1671 7.24825 29.145C7.34712 29.2115 7.453 29.2794 7.56266 29.3509C7.54516 29.3561 7.52562 29.3567 7.50812 29.3658C7.78433 29.5066 8.08358 29.679 8.41579 29.8263C8.74391 29.9815 9.0875 30.1533 9.44566 30.2766C9.80121 30.4102 10.1582 30.5406 10.5056 30.6094C10.8515 30.685 11.1779 30.7576 11.4681 30.7561C11.2065 30.6832 10.9294 30.6068 10.65 30.5275C10.8495 30.5738 11.0606 30.6196 11.2823 30.6552C11.641 30.7197 12.015 30.797 12.3947 30.8238C12.7721 30.8606 13.1516 30.8926 13.5045 30.8708C13.8583 30.855 14.1914 30.839 14.472 30.7628C13.41 30.7529 12.138 30.7567 11.1846 30.4998C11.2525 30.5006 11.3578 30.5246 11.3657 30.4823C11.2015 30.5248 10.9743 30.4808 10.7727 30.426C10.5872 30.3784 10.4198 30.349 10.3157 30.4266C10.2539 30.4076 10.192 30.3886 10.1305 30.3697C10.1567 30.3743 10.1842 30.3773 10.209 30.3811C9.95287 30.3297 9.91466 30.2968 10.0587 30.2565C9.80646 30.2259 9.53171 30.1317 9.24004 30.0334C9.09537 29.9835 8.9475 29.9287 8.79846 29.8715C8.76171 29.8563 8.72408 29.8391 8.68791 29.8225C8.57387 29.768 8.46391 29.7096 8.35833 29.6493C8.42396 29.6682 8.51904 29.7178 8.538 29.6808C8.36766 29.6784 8.15854 29.5784 7.97887 29.4725C7.89691 29.427 7.81846 29.3871 7.74641 29.3614C7.68341 29.3287 7.61516 29.2952 7.55683 29.2608C7.474 29.2129 7.39379 29.1683 7.31504 29.1243C7.32116 29.1234 7.32641 29.124 7.33429 29.1237C7.28791 29.1044 7.24008 29.0802 7.19371 29.0569C7.15987 29.0394 7.1275 29.0228 7.096 29.0044C6.93529 28.9151 6.77166 28.8072 6.60279 28.6949C6.47475 28.6092 6.34729 28.5182 6.21896 28.4246C6.09062 28.3312 5.97337 28.2218 5.85262 28.1203C5.85087 28.1198 5.85029 28.1174 5.84854 28.1168C5.88296 28.125 5.92175 28.1276 5.9445 28.1192C5.66712 27.9033 5.41396 27.6554 5.15262 27.4168C4.95371 27.3439 5.60879 27.8765 5.77971 28.0431C5.77766 28.0477 5.78321 28.0521 5.78262 28.0576C5.56941 27.8718 5.35621 27.6933 5.178 27.5143C4.9785 27.3153 4.79562 27.1377 4.63666 27.0036C4.78221 27.1753 4.96916 27.3891 5.18004 27.6216C5.39821 27.8462 5.65546 28.0734 5.91241 28.3003C6.03987 28.4164 6.17462 28.5205 6.3155 28.6159C6.45316 28.7136 6.58908 28.8069 6.72121 28.8924C6.85362 28.9764 6.97875 29.0607 7.10212 29.1234C7.22725 29.1905 7.34421 29.2427 7.45008 29.2858ZM19.2296 28.4211C19.0637 28.529 18.8052 28.6766 18.5544 28.8236C18.3021 28.9703 18.0405 29.0913 17.8894 29.2045C17.9871 29.1581 18.1169 29.1036 18.2572 29.0426C18.4001 28.9848 18.548 28.916 18.6842 28.8358C18.9578 28.6841 19.1943 28.5266 19.2296 28.4211ZM6.56341 29.1721C6.67308 29.2398 6.78741 29.3057 6.9 29.3634C7.01696 29.4153 7.12896 29.4614 7.2255 29.5002C7.10621 29.4489 6.98808 29.3871 6.88075 29.3144C6.77458 29.2389 6.67221 29.1593 6.57537 29.0843C6.38346 28.9347 6.21604 28.8023 6.07458 28.7541C6.15362 28.8877 6.34408 29.0365 6.56341 29.1721ZM22.3493 24.973C22.3137 25.0786 22.1305 25.1996 22.3493 24.973ZM2.38296 23.797C2.28962 23.6319 2.21729 23.2271 2.11491 23.2218C2.1505 23.3469 2.10325 23.3878 2.13241 23.5062C2.22662 23.4295 2.29371 23.8089 2.38296 23.797ZM18.5792 24.5501C18.4678 24.6968 18.1738 24.8677 18.1808 24.9969C18.3715 24.8849 18.5112 24.751 18.5792 24.5501ZM14.8482 7.72905C14.9611 7.74888 15.0707 7.76697 15.1725 7.78534C15.3793 7.81597 15.5619 7.83347 15.6981 7.81451C15.2915 7.75472 14.8246 7.64388 14.5026 7.68588C14.6198 7.69988 14.7347 7.71476 14.8482 7.72905ZM24.5129 22.1563C24.6106 22.2873 24.7127 22.4086 24.7439 22.6058C24.8597 22.3334 24.7894 22.259 24.8404 22.0408C24.7138 22.0015 24.6033 22.0306 24.5129 22.1563ZM17.9921 8.78693C17.7337 8.6618 17.3877 8.34243 17.0786 8.35613C17.0762 8.52238 17.7888 8.84351 17.9921 8.78693ZM21.1879 26.3721C21.3573 26.3228 21.8284 25.8754 21.8785 25.6263C21.661 25.8173 21.2214 26.1878 21.1879 26.3721ZM22.1918 12.1426C22.3236 12.3027 22.4485 12.4535 22.5698 12.599C22.6853 12.7492 22.8028 12.8948 22.9218 13.0374C22.8072 12.8644 22.683 12.6798 22.5549 12.4911C22.4175 12.3097 22.2764 12.1245 22.1384 11.941C21.8666 11.5718 21.5507 11.2699 21.2827 11.0625C21.4615 11.2649 21.6268 11.4516 21.7802 11.6272C21.9275 11.8112 22.0637 11.9827 22.1918 12.1426ZM17.5887 8.3398C17.8197 8.42176 18.051 8.49409 18.2703 8.57984C18.4897 8.66968 18.7014 8.75601 18.9085 8.84001C18.6749 8.72276 18.4392 8.60638 18.2044 8.49993C17.9647 8.40455 17.7249 8.31705 17.4904 8.23538C17.3732 8.19659 17.2574 8.15838 17.1433 8.12105C17.027 8.08838 16.9123 8.06418 16.7986 8.03822C16.5734 7.9898 16.3547 7.95159 16.1496 7.92563C16.6379 8.04813 17.1285 8.16947 17.5887 8.3398Z" fill="white"/>
</mask>
<g mask="url(#mask3_1915_19092)">
<path d="M36.3439 14.6396L8.80878 -3.57617L-9.37109 23.9044L18.164 42.1204L36.3439 14.6396Z" fill="url(#paint0_linear_1915_19092)"/>
</g>
</g>
</g>
</g>
<path d="M26.4275 3.65918C26.3738 3.75922 26.3196 3.85985 26.2656 3.96047C26.314 3.91964 26.3759 3.88551 26.4599 3.85985C26.531 3.80997 26.4713 3.74026 26.4275 3.65918Z" fill="#3B3C3D"/>
<path d="M26.1112 4.2373C26.1016 4.25539 26.0914 4.27347 26.082 4.29039C26.0838 4.3111 26.0867 4.33239 26.0908 4.35135C26.0957 4.31255 26.103 4.27435 26.1112 4.2373Z" fill="#3B3C3D"/>
<path d="M25.9453 4.81672C26.0089 4.73067 26.0401 4.63384 26.0599 4.53613C25.9981 4.60147 25.9552 4.69159 25.9453 4.81672Z" fill="#3B3C3D"/>
<path d="M26.2311 4.42565C26.1655 4.43527 26.1054 4.42681 26.0925 4.35419C26.0925 4.3536 26.0928 4.35302 26.0925 4.35156C26.0835 4.41252 26.075 4.47377 26.0625 4.53531C26.1092 4.48631 26.1669 4.44985 26.2311 4.42565Z" fill="#3B3C3D"/>
<path d="M26.2305 4.42529C26.2943 4.41596 26.3638 4.38621 26.3999 4.38184C26.3413 4.39029 26.2844 4.40459 26.2305 4.42529Z" fill="#3B3C3D"/>
<path d="M27.3603 5.12279C27.372 5.19571 27.0404 5.02363 27.0646 5.16829C27.0401 5.46871 27.0885 5.76096 26.9765 6.00188C27.0028 6.14888 26.5437 6.13692 26.5641 6.28071C26.5311 6.5785 26.6498 7.45467 26.824 7.06121C26.9453 6.76021 27.0308 6.50471 27.111 6.2565C27.1842 6.00479 27.2513 5.76038 27.3428 5.48388C27.4061 4.99417 27.4347 4.51146 27.5138 4.02292C27.5552 3.89488 27.6333 3.79308 27.7048 3.6875C27.589 3.81525 27.4636 3.943 27.3347 4.08913C27.1372 4.26792 27.4473 4.73633 27.3603 5.12279Z" fill="#3B3C3D"/>
<mask id="mask4_1915_19092" style="mask-type:luminance" maskUnits="userSpaceOnUse" x="5" y="5" width="22" height="21">
<path d="M5.15234 5.80273H26.3577V25.3234H5.15234V5.80273Z" fill="white"/>
</mask>
<g mask="url(#mask4_1915_19092)">
<path d="M25.7068 6.10325C25.5341 6.46054 25.3591 6.80442 25.1821 7.13779C25.0922 7.30375 25.0033 7.46767 24.9152 7.63071C24.8192 7.78909 24.7244 7.94629 24.6297 8.10234C24.6667 8.18604 24.7224 8.261 24.6472 8.30621C24.5629 8.32517 24.4993 8.35579 24.4479 8.39284C24.3911 8.48325 24.3339 8.57309 24.2779 8.66234C24.2683 8.69938 24.2589 8.737 24.2493 8.77492C24.2493 8.7755 24.2493 8.77754 24.2493 8.77871C24.2578 8.85163 24.3167 8.86417 24.3826 8.85834C24.4369 8.84142 24.4961 8.83063 24.5547 8.82625C24.5174 8.82888 24.4468 8.85279 24.3826 8.85834C24.3167 8.87963 24.2572 8.91054 24.2076 8.9575C24.1808 9.05404 24.1437 9.14971 24.074 9.23109C24.0918 9.10713 24.1405 9.01934 24.2076 8.9575C24.2239 8.89625 24.2359 8.83559 24.2493 8.77492C24.2479 8.75479 24.2464 8.73467 24.2447 8.71338C24.1122 8.91754 23.9807 9.12054 23.8486 9.32384C23.8302 9.37721 23.813 9.42854 23.801 9.47142C23.7547 9.64671 23.7086 9.82229 23.4965 9.82346C23.4717 9.85846 23.4461 9.89375 23.4207 9.92904C23.4347 9.92817 23.4469 9.92496 23.4624 9.92467C23.4426 9.93517 23.4239 9.94304 23.407 9.94859C23.3002 10.0968 23.1929 10.2452 23.0856 10.3948C23.0856 10.5325 23.0981 10.6836 23.0812 10.8166C23.0812 10.8166 22.9327 10.8224 22.8592 10.825C22.9132 10.9166 22.9295 11.0103 22.9135 11.0983C23.0593 11.0718 23.2107 11.0587 23.3189 11.026C23.5423 11.0161 23.1398 10.5938 23.5164 10.6503C23.1398 10.5938 23.5426 11.0155 23.3189 11.026C23.2107 11.0587 23.0593 11.0718 22.9135 11.0983C22.8811 11.2824 22.6985 11.4343 22.448 11.4889C22.4349 11.2159 22.6691 11.1421 22.9135 11.0983C22.9295 11.01 22.9132 10.9163 22.8592 10.825C22.9327 10.8221 23.0812 10.8166 23.0812 10.8166C23.0987 10.6833 23.0856 10.5325 23.0856 10.3948C22.8727 10.6836 22.6697 10.9831 22.4381 11.2722C22.0633 11.7359 21.7244 12.2073 21.372 12.662C21.013 13.1114 20.6779 13.572 20.32 14.0173C19.6016 14.9046 18.8654 15.7915 17.9861 16.6278C17.0399 17.5395 16.0197 18.2905 14.9676 18.9054C13.9223 19.5185 13.021 20.1826 12.0396 20.7111C11.0672 21.234 9.99149 21.6205 8.81403 21.5065C8.36953 21.4697 7.81069 21.5884 7.26674 21.6864C6.72424 21.7882 6.19749 21.8678 5.86878 21.8769C5.63924 22.0283 5.50915 22.226 5.40561 22.4567C5.36886 22.5713 5.31753 22.6909 5.30061 22.8152C5.28369 22.9406 5.25453 23.064 5.23178 23.1841C5.10082 23.6598 5.23761 24.1081 5.26007 24.1542C5.4164 24.5159 5.60832 24.7349 5.81219 24.874C6.01694 25.0097 6.23919 25.0706 6.48507 25.096C6.98411 25.1494 7.56657 25.1147 8.50632 25.3235C7.8699 25.2124 8.0589 24.958 8.52965 24.8125C9.00186 24.6565 9.76778 24.5815 10.4488 24.821C11.4562 25.2173 12.4619 24.865 13.3419 24.2992C13.4542 24.2298 13.5662 24.1592 13.6758 24.0854C13.7826 24.0069 13.8893 23.9288 13.9967 23.8506C14.2093 23.6934 14.4228 23.5362 14.6354 23.3793C15.0484 23.0558 15.4827 22.7735 15.9266 22.5395C16.1518 22.4261 16.3624 22.2773 16.5741 22.1125C16.7789 21.9405 16.9874 21.755 17.2234 21.5762C17.562 21.381 17.8668 21.1553 18.164 20.9223C18.4618 20.6898 18.7517 20.4498 19.0127 20.187C19.2779 19.9274 19.5395 19.664 19.7874 19.3907C20.0277 19.1122 20.2622 18.8287 20.4953 18.5425C20.7339 18.2602 20.9456 17.9595 21.1658 17.6626C21.3825 17.363 21.6124 17.0699 21.8244 16.7634C22.2462 16.1485 22.7073 15.5457 23.164 14.9195C23.3977 14.5805 23.5508 14.2157 23.6654 13.8493C23.7727 13.4795 23.8503 13.1117 23.9556 12.774C24.0638 12.5473 24.2283 12.3467 24.394 12.1594C24.5544 11.9698 24.711 11.791 24.8152 11.6172C25.1342 11.066 25.3151 10.5345 25.4195 9.99642C25.2002 10.5407 25.0549 10.9522 24.7729 11.5446C24.5704 11.9299 24.5179 11.0365 24.5719 10.7393C24.562 10.5926 25.0184 10.6363 25.0088 10.4882C25.1479 10.2598 25.1194 9.962 25.1637 9.66071C25.1497 9.51284 25.4691 9.70796 25.4624 9.63388C25.5767 9.25034 25.2993 8.75917 25.5076 8.59204C25.6467 8.45438 25.7791 8.33275 25.9092 8.21463C25.9769 8.13179 26.0372 8.04663 26.0746 7.94134C26.0787 7.86609 26.0824 7.78821 26.0865 7.71004C25.9597 7.70771 25.8264 7.66134 25.6934 7.61292C25.7572 7.53184 25.8952 7.442 25.9599 7.36063C25.8952 7.442 25.7569 7.53184 25.6934 7.61292C25.8264 7.66104 25.9597 7.70771 26.0865 7.71004C26.1221 7.15529 26.2099 6.54542 26.3099 5.99184C26.2994 5.98921 26.2875 5.98629 26.2767 5.98367C26.1679 6.28263 25.9973 6.54396 25.6464 6.73354C25.7841 6.64429 25.8689 6.70642 25.8153 6.861C25.7415 6.86946 25.6665 6.87821 25.593 6.88696C25.6269 6.58829 25.6581 6.29225 26.0197 6.17413C26.0197 6.17413 25.999 6.02975 25.9885 5.958C26.0749 5.90142 26.1784 5.95654 26.2767 5.98396C26.298 5.92563 26.3181 5.86584 26.333 5.80371C26.1093 5.84163 25.7068 6.10325 25.7068 6.10325Z" fill="#3B3C3D"/>
</g>
<path d="M24.1937 8.95852C24.2033 8.91507 24.2214 8.8649 24.2401 8.81152C24.1278 8.98098 24.0152 9.15102 23.9023 9.32136C24.1123 9.3164 24.1529 9.13761 24.1937 8.95852Z" fill="#3B3C3D"/>
<path d="M20.7317 10.5646C20.5832 10.8053 20.4327 11.0339 20.2796 11.2547C20.1285 11.4764 19.9731 11.6881 19.8033 11.8856C19.8398 11.9597 19.8926 12.0311 19.8255 12.0495C19.7488 12.0448 19.6913 12.0545 19.6458 12.0714C19.5962 12.1288 19.5469 12.1863 19.4977 12.2435C19.4892 12.2697 19.4819 12.2971 19.4749 12.3254C19.4749 12.3257 19.4749 12.3272 19.4749 12.3286C19.4845 12.3876 19.5385 12.4115 19.5983 12.4226C19.6476 12.4217 19.7009 12.4269 19.7543 12.4368C19.7202 12.4307 19.6569 12.4333 19.5983 12.4226C19.5391 12.4237 19.4857 12.4339 19.4417 12.4593C19.4201 12.529 19.3886 12.5955 19.3276 12.6433C19.3407 12.5497 19.3824 12.492 19.4417 12.4593C19.4554 12.415 19.4644 12.3701 19.4749 12.3254C19.4729 12.3091 19.4711 12.2928 19.4688 12.2758C19.3542 12.4051 19.2395 12.5337 19.1252 12.6623C19.1097 12.7002 19.0946 12.7358 19.0867 12.7685C19.0497 12.8956 19.0112 13.024 18.8207 12.9729L18.7545 13.0374C18.7667 13.0397 18.7784 13.0418 18.7918 13.0444C18.7746 13.0482 18.7577 13.0496 18.7428 13.0496C18.6504 13.1403 18.5576 13.2316 18.464 13.3235C18.4672 13.4332 18.4818 13.5568 18.4687 13.6589C18.4687 13.6589 18.3362 13.6254 18.2703 13.6091C18.3205 13.6957 18.3368 13.7747 18.3237 13.8415C18.4535 13.8576 18.5888 13.8858 18.6857 13.8867C18.886 13.9351 18.5171 13.4965 18.8557 13.6359C18.5171 13.4962 18.886 13.9351 18.6857 13.8867C18.5888 13.8858 18.4535 13.8578 18.3237 13.8415C18.298 13.9801 18.1379 14.0553 17.9168 14.0328C17.9002 13.8103 18.1067 13.8135 18.3237 13.8415C18.3368 13.7747 18.3205 13.6957 18.2703 13.6091C18.3362 13.6254 18.4687 13.6589 18.4687 13.6589C18.4818 13.5568 18.4672 13.4332 18.464 13.3235C18.2794 13.4994 18.1044 13.6863 17.904 13.8564C17.5791 14.1276 17.2894 14.4173 16.9844 14.6827C16.8333 14.8166 16.6828 14.9498 16.5326 15.0826C16.3841 15.2176 16.2383 15.3538 16.0805 15.4763C15.7684 15.7248 15.4724 15.9961 15.1349 16.2198C14.9692 16.3353 14.8021 16.4516 14.6329 16.5692C14.4582 16.6768 14.2768 16.7777 14.0945 16.8804C13.2895 17.2995 12.4629 17.5874 11.6402 17.6726C10.8284 17.7633 10.1375 17.9625 9.41532 18.0074C8.70453 18.0526 7.95465 17.9248 7.35032 17.35C7.12078 17.1373 6.7769 17.0338 6.43536 16.9233C6.09382 16.8203 5.74878 16.7267 5.54345 16.6395C5.34045 16.7077 5.15699 16.8495 4.99307 17.028C4.82303 17.203 4.69324 17.4308 4.54653 17.6268C4.2464 18.0153 4.13061 18.4458 4.12594 18.4948C4.01336 19.2239 4.21024 19.5031 4.49607 19.7198C4.79357 19.9382 5.1739 20.1103 5.68899 20.6741C5.32674 20.3253 5.55599 20.1727 5.91386 20.2226C6.2764 20.2771 6.78886 20.5105 7.14936 21.0253C7.6694 21.8078 8.51232 21.93 9.32665 21.7999C10.1524 21.6681 10.9381 21.3283 11.7317 21.2816C11.9365 21.2793 12.124 21.2093 12.3241 21.1425C12.5213 21.0696 12.7316 20.9984 12.9459 20.9159C13.2417 20.8526 13.5398 20.782 13.8169 20.6785C14.091 20.5723 14.3591 20.4524 14.621 20.3229C15.1229 20.04 15.6068 19.7253 16.0376 19.3593C16.4906 19.0119 16.8788 18.6079 17.3037 18.2288C17.5024 18.029 17.7027 17.8289 17.9113 17.6332C18.0166 17.5361 18.1222 17.4386 18.2289 17.3403C18.3307 17.2397 18.4345 17.14 18.5413 17.0414C18.7554 16.82 18.8957 16.5528 19.0056 16.2804C19.1045 16.0013 19.1754 15.7181 19.2699 15.4673C19.3667 15.3083 19.514 15.1855 19.6627 15.0735C19.8065 14.9589 19.9468 14.8521 20.0393 14.7358C20.3234 14.3653 20.4847 13.9777 20.5687 13.5697C20.3797 13.9556 20.2502 14.2536 20.0008 14.6661C19.8208 14.9294 19.7666 14.1915 19.8103 13.9666C19.7989 13.8459 20.2137 13.9906 20.2032 13.8686C20.3266 13.7173 20.2933 13.4708 20.3289 13.2416C20.3132 13.1205 20.6086 13.3501 20.601 13.2894C20.699 13.0088 20.4339 12.5561 20.6209 12.4713C20.7448 12.3931 20.865 12.3272 20.9805 12.2616C21.0385 12.2099 21.0931 12.1568 21.1246 12.0819C21.1266 12.0236 21.1284 11.9632 21.1301 11.9025C21.0129 11.8728 20.8889 11.8071 20.7649 11.7395C20.8889 11.8071 21.0129 11.8731 21.1301 11.9025C21.1488 11.4735 21.2124 11.0158 21.2876 10.6061C21.278 10.6017 21.2669 10.597 21.2567 10.5926C21.1651 10.8021 21.0146 10.9701 20.6961 11.0415C20.8207 11.0016 20.9012 11.0683 20.8559 11.1774C20.7877 11.1681 20.7192 11.1585 20.6515 11.1494C20.6737 10.9237 20.6929 10.7008 21.0239 10.6863C21.0239 10.6863 21 10.5699 20.9881 10.5118C21.0665 10.4865 21.1645 10.5506 21.2567 10.5926C21.2757 10.5527 21.2882 10.5078 21.301 10.4634C21.1992 10.4553 21.0569 10.4815 20.9394 10.5081C20.8221 10.5358 20.7317 10.5646 20.7317 10.5646Z" fill="#00668C"/>
<path d="M19.431 12.4571C19.4389 12.4248 19.4534 12.3895 19.4695 12.3516C19.3718 12.4589 19.2741 12.5659 19.1758 12.6736C19.3657 12.7199 19.3986 12.5878 19.431 12.4571Z" fill="#00668C"/>
<path d="M21.3158 8.83008C21.2694 8.8957 21.2227 8.96191 21.1758 9.02841C21.2195 9.00683 21.2758 8.99312 21.3537 8.99049C21.4179 8.96658 21.3601 8.90095 21.3158 8.83008Z" fill="#00668C"/>
<path d="M21.0452 9.20996C21.0364 9.22192 21.0277 9.23388 21.0195 9.24496C21.0224 9.26159 21.0254 9.27792 21.03 9.29367C21.0332 9.26479 21.0385 9.23679 21.0452 9.20996Z" fill="#00668C"/>
<path d="M20.9141 9.62063C20.9698 9.56754 20.9957 9.49988 21.0103 9.42871C20.9555 9.46604 20.9184 9.52642 20.9141 9.62063Z" fill="#00668C"/>
<path d="M21.1615 9.37843C21.1003 9.37201 21.044 9.35334 21.0294 9.29501L21.0297 9.29297C21.0233 9.33789 21.0177 9.38309 21.0078 9.42801C21.0498 9.40001 21.1023 9.38397 21.1615 9.37843Z" fill="#00668C"/>
<path d="M21.1641 9.37838C21.2227 9.38451 21.2866 9.37546 21.3201 9.37955C21.2659 9.37401 21.2134 9.37342 21.1641 9.37838Z" fill="#00668C"/>
<path d="M22.2429 10.1466C22.256 10.2058 21.9407 10.0052 21.9681 10.1221C21.9544 10.3499 22.0084 10.5873 21.911 10.7518C21.9387 10.872 21.5152 10.769 21.5373 10.8845C21.5163 11.1091 21.6493 11.8228 21.8001 11.551C21.9043 11.3395 21.9789 11.1581 22.0431 10.9785C22.1041 10.7973 22.1598 10.6206 22.2371 10.424C22.2817 10.0559 22.2933 9.68783 22.3514 9.32616C22.3864 9.23574 22.4535 9.17128 22.5185 9.10449C22.4132 9.18003 22.3027 9.25558 22.1857 9.34191C22.0069 9.44049 22.3126 9.8637 22.2429 10.1466Z" fill="#00668C"/>
<path d="M22.3755 7.37413C22.3921 7.43071 22.426 7.54475 22.426 7.54475C22.0981 7.58442 22.097 7.80667 22.0938 8.03155C22.1617 8.03534 22.2305 8.03942 22.2997 8.04321C22.3355 7.93267 22.2498 7.87171 22.1299 7.9213C22.44 7.8268 22.5762 7.64946 22.65 7.4348C22.5537 7.40009 22.4513 7.34321 22.3755 7.37413Z" fill="#00668C"/>
<path d="M22.6882 7.30469C22.6777 7.34902 22.6658 7.39277 22.6523 7.43477C22.6623 7.43827 22.6725 7.44177 22.683 7.44556C22.6882 7.39802 22.6932 7.35106 22.6984 7.30469H22.6882Z" fill="#00668C"/>
<path d="M24.9204 10.4268C24.9204 10.3976 24.9012 10.3784 24.8819 10.3784C24.8627 10.3784 24.795 10.3591 24.7369 10.33C24.6885 10.3011 24.6308 10.2818 24.6209 10.2915C24.6112 10.3011 24.592 10.3011 24.5631 10.2722C24.5436 10.2527 24.447 10.2334 24.3601 10.2238C24.1379 10.2045 24.0509 10.2722 24.0124 10.5137C23.9932 10.6102 23.964 10.7164 23.9448 10.7456C23.9255 10.7745 23.9255 10.8325 23.9352 10.871C23.9544 10.9098 23.9544 10.9871 23.9352 11.0545C23.9159 11.1705 23.8964 11.2478 23.8482 11.5278C23.8386 11.5955 23.7902 11.7889 23.7517 11.9723C23.6549 12.3492 23.481 13.2379 23.4522 13.4794C23.4425 13.5759 23.4037 13.7498 23.3749 13.8658C23.3457 13.9913 23.3168 14.2135 23.3072 14.3777C23.2879 14.6869 23.0561 16.2327 22.8919 17.1407C22.8338 17.4306 22.7854 17.759 22.7662 17.8459C22.7373 18.097 22.6504 18.5897 22.5731 18.9569C22.5054 19.2949 22.4474 19.6333 22.4666 19.6621C22.5054 19.691 22.5247 19.6233 22.5634 19.3337C22.6212 18.9957 22.6407 18.9184 22.6792 18.7734C22.6985 18.7058 22.7277 18.58 22.7373 18.4643C22.7469 18.3581 22.7854 18.2516 22.8049 18.2228C22.8434 18.1936 22.8434 18.1743 22.8146 18.1358C22.7854 18.1067 22.7854 18.097 22.8434 18.1163C22.94 18.1455 22.9496 18.1163 22.8627 18.0489C22.8146 18.0101 22.8146 18.0101 22.8627 17.9521C22.94 17.8847 22.94 17.8459 22.8723 17.8943C22.8338 17.9328 22.8242 17.9136 22.8434 17.7398C22.8531 17.6333 22.8822 17.4595 22.9111 17.3629C22.9304 17.2568 22.9595 17.0925 22.9692 16.9957C22.9788 16.8895 22.998 16.793 23.0077 16.7738C23.0365 16.7446 23.1042 16.2905 23.0946 16.1939C23.0946 16.165 23.1138 16.1458 23.1334 16.1458C23.1622 16.1554 23.1719 16.1843 23.1719 16.2132C23.1622 16.252 23.1815 16.2712 23.2107 16.2712C23.2588 16.2712 23.2588 16.3004 23.2492 16.3873C23.201 16.6965 23.0849 17.4014 23.0365 17.6237C23.0173 17.7686 22.9884 17.9909 22.9692 18.1262C22.9595 18.2516 22.94 18.387 22.9304 18.4255C22.9015 18.5512 22.8049 19.1307 22.7662 19.3626C22.7373 19.5752 22.6792 19.8648 22.6504 19.9809C22.6407 20.0582 22.6019 20.3093 22.5731 20.5412C22.5439 20.7731 22.515 21.0338 22.5054 21.1208C22.4862 21.198 22.4762 21.3526 22.4666 21.4591C22.4377 21.7102 22.4281 21.8164 22.3797 22.029C22.3508 22.174 22.3604 22.2221 22.3797 22.2317C22.4089 22.2413 22.4089 22.2513 22.3893 22.2705C22.3701 22.2801 22.3412 22.3478 22.3316 22.4251C22.3217 22.5313 22.3217 22.5409 22.3412 22.4828C22.3893 22.3863 22.4185 22.3863 22.4185 22.4732C22.4185 22.5024 22.3893 22.5601 22.3604 22.5989C22.3217 22.6278 22.2928 22.6858 22.2928 22.7246C22.2735 22.8888 22.2543 22.937 22.177 22.9273C22.0609 22.9081 22.0513 22.8597 22.0609 22.6473C22.0705 22.512 22.0705 22.4732 22.0513 22.5024C21.9932 22.5893 21.9644 23.0723 22.0128 23.1012C22.032 23.1207 22.0609 23.1108 22.0705 23.0819C22.0997 23.0434 22.2059 23.1303 22.4185 23.3718L22.4958 23.4588L22.5535 23.3042L22.6212 23.3815C22.6889 23.4588 22.8146 23.478 22.9015 23.4103C22.9496 23.3815 22.9595 23.3138 22.9595 23.053C22.9595 22.8789 22.9788 22.7051 22.998 22.6666C23.0173 22.6374 23.0365 22.5313 23.0365 22.4443C23.0464 22.3478 23.0657 22.2609 23.0753 22.2413C23.0849 22.2221 23.1042 22.1352 23.1138 22.0483C23.1237 21.9517 23.1622 21.7875 23.201 21.6714C23.2299 21.5556 23.2684 21.3334 23.2783 21.1788C23.3168 20.7442 23.3168 20.715 23.3749 20.4254C23.4037 20.2805 23.481 19.9036 23.5294 19.5945C23.5872 19.2853 23.6549 18.928 23.6744 18.8023C23.7033 18.667 23.7517 18.3773 23.7902 18.1551C23.8191 17.9328 23.8579 17.7301 23.8675 17.7106C23.8867 17.6913 23.9159 17.556 23.9352 17.4113C23.9833 17.0925 23.9737 17.1795 24.109 16.3873C24.167 16.0589 24.2248 15.7205 24.2347 15.6432C24.2347 15.5756 24.2539 15.4598 24.2636 15.3921C24.2732 15.3245 24.2828 15.2087 24.2924 15.1217C24.3312 14.7353 24.3697 14.4842 24.4085 14.4069C24.4567 14.2908 24.5727 13.7113 24.6404 13.2764C24.6885 12.9771 24.8335 12.3877 24.8915 12.2623C24.9012 12.2235 24.93 12.0785 24.9592 11.9338C24.9784 11.7985 25.0169 11.6439 25.0365 11.5955C25.0557 11.557 25.075 11.4409 25.075 11.354C25.0846 11.2671 25.1042 11.1417 25.1234 11.074C25.1619 10.929 25.0942 10.6779 24.9881 10.5522C24.9496 10.5041 24.9204 10.446 24.9204 10.4268ZM22.5535 21.3526C22.5343 21.3526 22.515 21.343 22.515 21.3238C22.515 21.3045 22.5343 21.285 22.5535 21.285C22.5731 21.285 22.5827 21.3045 22.5827 21.3238C22.5827 21.343 22.5731 21.3526 22.5535 21.3526ZM22.6504 20.5896C22.6308 20.6089 22.6212 20.5896 22.6212 20.5605C22.6212 20.5027 22.6407 20.4928 22.6696 20.5412C22.6792 20.5605 22.6696 20.58 22.6504 20.5896ZM23.2588 16.1747C23.2395 16.1747 23.2299 16.1554 23.2299 16.1362C23.2299 16.1166 23.2395 16.107 23.2588 16.107C23.2783 16.107 23.2976 16.1166 23.2976 16.1362C23.2976 16.1554 23.2783 16.1747 23.2588 16.1747ZM23.3361 15.8366C23.3168 15.9524 23.2976 15.9816 23.2492 15.9816C23.2107 15.9717 23.1911 15.9912 23.1911 16.0297C23.1911 16.0781 23.1815 16.107 23.1622 16.107C23.1237 16.107 23.1622 15.7978 23.201 15.7497C23.2203 15.7302 23.2395 15.7302 23.2684 15.769C23.2976 15.8171 23.3072 15.7978 23.2976 15.6432C23.2976 15.5563 23.2976 15.5467 23.3264 15.624C23.3457 15.6628 23.3457 15.7593 23.3361 15.8366ZM23.423 15.2087C23.3941 15.3632 23.3652 15.479 23.3361 15.4887C23.2976 15.4983 23.2976 15.4887 23.3264 15.4309C23.3556 15.3729 23.3556 15.3632 23.3168 15.3632C23.2492 15.3632 23.2395 15.2956 23.3072 15.2763C23.3264 15.2667 23.3556 15.199 23.3556 15.1121C23.3652 14.9864 23.4037 14.8803 23.4522 14.9284C23.4522 14.9284 23.4425 15.0541 23.423 15.2087Z" fill="#3B3C3D"/>
<path d="M22.9537 18.5824C22.8878 18.5092 22.8878 18.5019 22.9537 18.5165C23.0488 18.531 22.8292 18.3703 22.7341 18.3485C22.6976 18.3409 22.6685 18.319 22.6612 18.2971C22.6539 18.2825 22.6831 18.2753 22.7268 18.2825C22.7636 18.2898 22.8146 18.2898 22.8292 18.2753C22.8659 18.2458 22.6903 18.0924 22.5588 18.041C22.4416 17.9973 21.8346 17.9387 21.5858 17.9533C21.4834 17.9533 21.3519 17.9533 21.2933 17.9533C21.0299 17.9387 20.5763 17.9314 20.4667 17.946C20.4011 17.9533 20.2619 17.9387 20.1523 17.9168C19.984 17.8876 19.9694 17.8803 20.0353 17.8582C20.1082 17.8363 20.1082 17.8363 20.0499 17.829C20.0131 17.8217 19.8962 17.8363 19.7865 17.8655C19.6841 17.9022 19.5745 17.9241 19.5526 17.9168C19.5304 17.9168 19.4426 17.9168 19.3548 17.9241C19.2306 17.9387 19.1868 17.9605 19.1574 18.0192C19.1355 18.0629 19.1428 18.0851 19.1796 18.0629C19.2087 18.0483 19.2452 18.0556 19.2746 18.0851C19.3403 18.1288 19.3476 18.2385 19.2892 18.202C19.1282 18.107 19.1063 18.107 19.0991 18.1802C19.0918 18.2166 19.1136 18.2825 19.1501 18.3263C19.1796 18.3703 19.1941 18.4214 19.1868 18.436C19.1796 18.4508 19.1941 18.4873 19.216 18.5165C19.2452 18.5459 19.2746 18.6043 19.2819 18.6556C19.2892 18.7215 19.3184 18.7434 19.3548 18.7361C19.3916 18.7361 19.5304 18.7507 19.6623 18.7653C19.9181 18.8017 20.0936 18.8166 20.2033 18.7944C20.2401 18.7871 20.4229 18.7798 20.6058 18.7798C20.7887 18.7798 21.0372 18.7798 21.1544 18.7725C21.2787 18.7725 21.4543 18.7725 21.5493 18.7725C21.6371 18.7725 21.7395 18.7507 21.7614 18.7361C21.7833 18.7066 21.8054 18.7066 21.8273 18.7361C21.8492 18.7653 21.8856 18.7653 21.937 18.7434C21.9807 18.7215 22.098 18.7139 22.2003 18.7215C22.2954 18.7288 22.4488 18.7361 22.5366 18.7288C22.6171 18.7215 22.7341 18.7288 22.7854 18.7361C22.8441 18.7434 22.917 18.7288 22.9537 18.7066C23.0121 18.6629 23.0121 18.6483 22.9537 18.5824ZM22.2368 18.1583C22.1785 18.1434 22.0834 18.1361 22.0321 18.1434C21.9734 18.1507 21.9224 18.1434 21.9151 18.1361C21.9005 18.107 22.1858 18.0851 22.2881 18.107C22.3319 18.1143 22.3686 18.1288 22.3538 18.1507C22.3465 18.1656 22.2954 18.1656 22.2368 18.1583ZM22.5366 18.1802C22.4488 18.2093 22.4124 18.202 22.427 18.1656C22.4343 18.1434 22.4783 18.1434 22.5221 18.1507C22.588 18.1656 22.5953 18.1729 22.5366 18.1802Z" fill="#3B3C3D"/>
</g>
<defs>
<linearGradient id="paint0_linear_1915_19092" x1="22.3762" y1="5.39931" x2="4.19634" y2="32.88" gradientUnits="userSpaceOnUse">
<stop stop-color="#68BBE3"/>
<stop offset="0.125" stop-color="#68BBE3"/>
<stop offset="0.140625" stop-color="#68BBE3"/>
<stop offset="0.148438" stop-color="#68BBE3"/>
<stop offset="0.152344" stop-color="#69BBE3"/>
<stop offset="0.15625" stop-color="#6ABCE3"/>
<stop offset="0.160156" stop-color="#6ABCE3"/>
<stop offset="0.164062" stop-color="#6BBCE3"/>
<stop offset="0.167969" stop-color="#6BBCE4"/>
<stop offset="0.171875" stop-color="#6CBDE4"/>
<stop offset="0.175781" stop-color="#6DBDE4"/>
<stop offset="0.179687" stop-color="#6DBDE4"/>
<stop offset="0.183594" stop-color="#6EBDE4"/>
<stop offset="0.1875" stop-color="#6EBEE4"/>
<stop offset="0.191406" stop-color="#6FBEE4"/>
<stop offset="0.195312" stop-color="#70BEE4"/>
<stop offset="0.199219" stop-color="#70BEE4"/>
<stop offset="0.203125" stop-color="#71BFE5"/>
<stop offset="0.207031" stop-color="#71BFE5"/>
<stop offset="0.210938" stop-color="#72BFE5"/>
<stop offset="0.214844" stop-color="#72BFE5"/>
<stop offset="0.21875" stop-color="#73C0E5"/>
<stop offset="0.222656" stop-color="#74C0E5"/>
<stop offset="0.226562" stop-color="#74C0E5"/>
<stop offset="0.230469" stop-color="#75C0E5"/>
<stop offset="0.234375" stop-color="#75C1E5"/>
<stop offset="0.238281" stop-color="#76C1E6"/>
<stop offset="0.242188" stop-color="#77C1E6"/>
<stop offset="0.246094" stop-color="#77C2E6"/>
<stop offset="0.25" stop-color="#78C2E6"/>
<stop offset="0.253906" stop-color="#78C2E6"/>
<stop offset="0.257812" stop-color="#79C2E6"/>
<stop offset="0.261719" stop-color="#79C3E6"/>
<stop offset="0.265625" stop-color="#7AC3E6"/>
<stop offset="0.269531" stop-color="#7BC3E6"/>
<stop offset="0.273438" stop-color="#7BC3E7"/>
<stop offset="0.277344" stop-color="#7CC4E7"/>
<stop offset="0.28125" stop-color="#7CC4E7"/>
<stop offset="0.285156" stop-color="#7DC4E7"/>
<stop offset="0.289062" stop-color="#7EC4E7"/>
<stop offset="0.292969" stop-color="#7EC5E7"/>
<stop offset="0.296875" stop-color="#7FC5E7"/>
<stop offset="0.300781" stop-color="#7FC5E7"/>
<stop offset="0.304688" stop-color="#80C5E7"/>
<stop offset="0.308594" stop-color="#80C6E8"/>
<stop offset="0.3125" stop-color="#81C6E8"/>
<stop offset="0.316406" stop-color="#82C6E8"/>
<stop offset="0.320312" stop-color="#82C6E8"/>
<stop offset="0.324219" stop-color="#83C7E8"/>
<stop offset="0.328125" stop-color="#83C7E8"/>
<stop offset="0.332031" stop-color="#84C7E8"/>
<stop offset="0.335938" stop-color="#85C7E8"/>
<stop offset="0.339844" stop-color="#85C8E8"/>
<stop offset="0.34375" stop-color="#86C8E8"/>
<stop offset="0.347656" stop-color="#86C8E9"/>
<stop offset="0.351562" stop-color="#87C8E9"/>
<stop offset="0.355469" stop-color="#87C9E9"/>
<stop offset="0.359375" stop-color="#88C9E9"/>
<stop offset="0.363281" stop-color="#89C9E9"/>
<stop offset="0.367188" stop-color="#89C9E9"/>
<stop offset="0.371094" stop-color="#8ACAE9"/>
<stop offset="0.375" stop-color="#8ACAE9"/>
<stop offset="0.378906" stop-color="#8BCAE9"/>
<stop offset="0.382813" stop-color="#8CCAEA"/>
<stop offset="0.386719" stop-color="#8CCBEA"/>
<stop offset="0.390625" stop-color="#8DCBEA"/>
<stop offset="0.394531" stop-color="#8DCBEA"/>
<stop offset="0.398438" stop-color="#8ECBEA"/>
<stop offset="0.402344" stop-color="#8FCCEA"/>
<stop offset="0.40625" stop-color="#8FCCEA"/>
<stop offset="0.410156" stop-color="#90CCEA"/>
<stop offset="0.414062" stop-color="#90CDEA"/>
<stop offset="0.417969" stop-color="#91CDEB"/>
<stop offset="0.421875" stop-color="#91CDEB"/>
<stop offset="0.425781" stop-color="#92CDEB"/>
<stop offset="0.429687" stop-color="#93CEEB"/>
<stop offset="0.433594" stop-color="#93CEEB"/>
<stop offset="0.4375" stop-color="#94CEEB"/>
<stop offset="0.441406" stop-color="#94CEEB"/>
<stop offset="0.445312" stop-color="#95CFEB"/>
<stop offset="0.449219" stop-color="#96CFEB"/>
<stop offset="0.453125" stop-color="#96CFEC"/>
<stop offset="0.457031" stop-color="#97CFEC"/>
<stop offset="0.460937" stop-color="#97D0EC"/>
<stop offset="0.464844" stop-color="#98D0EC"/>
<stop offset="0.46875" stop-color="#98D0EC"/>
<stop offset="0.472656" stop-color="#99D0EC"/>
<stop offset="0.476562" stop-color="#9AD1EC"/>
<stop offset="0.480469" stop-color="#9AD1EC"/>
<stop offset="0.484375" stop-color="#9BD1EC"/>
<stop offset="0.488281" stop-color="#9BD1ED"/>
<stop offset="0.492188" stop-color="#9CD2ED"/>
<stop offset="0.496094" stop-color="#9DD2ED"/>
<stop offset="0.5" stop-color="#9DD2ED"/>
<stop offset="0.503906" stop-color="#9ED2ED"/>
<stop offset="0.507812" stop-color="#9ED3ED"/>
<stop offset="0.511719" stop-color="#9FD3ED"/>
<stop offset="0.515625" stop-color="#9FD3ED"/>
<stop offset="0.519531" stop-color="#A0D3ED"/>
<stop offset="0.523437" stop-color="#A1D4EE"/>
<stop offset="0.527344" stop-color="#A1D4EE"/>
<stop offset="0.53125" stop-color="#A2D4EE"/>
<stop offset="0.535156" stop-color="#A2D4EE"/>
<stop offset="0.539062" stop-color="#A3D5EE"/>
<stop offset="0.542969" stop-color="#A4D5EE"/>
<stop offset="0.546875" stop-color="#A4D5EE"/>
<stop offset="0.550781" stop-color="#A5D5EE"/>
<stop offset="0.554687" stop-color="#A5D6EE"/>
<stop offset="0.558594" stop-color="#A6D6EE"/>
<stop offset="0.5625" stop-color="#A6D6EF"/>
<stop offset="0.566406" stop-color="#A7D6EF"/>
<stop offset="0.570312" stop-color="#A8D7EF"/>
<stop offset="0.574219" stop-color="#A8D7EF"/>
<stop offset="0.578125" stop-color="#A9D7EF"/>
<stop offset="0.582031" stop-color="#A9D7EF"/>
<stop offset="0.585937" stop-color="#AAD8EF"/>
<stop offset="0.589844" stop-color="#ABD8EF"/>
<stop offset="0.59375" stop-color="#ABD8EF"/>
<stop offset="0.597656" stop-color="#ACD9F0"/>
<stop offset="0.601562" stop-color="#ACD9F0"/>
<stop offset="0.605469" stop-color="#ADD9F0"/>
<stop offset="0.609375" stop-color="#ADD9F0"/>
<stop offset="0.613281" stop-color="#AEDAF0"/>
<stop offset="0.617188" stop-color="#AFDAF0"/>
<stop offset="0.621094" stop-color="#AFDAF0"/>
<stop offset="0.625" stop-color="#B0DAF0"/>
<stop offset="0.628906" stop-color="#B0DBF0"/>
<stop offset="0.632812" stop-color="#B1DBF1"/>
<stop offset="0.636719" stop-color="#B2DBF1"/>
<stop offset="0.640625" stop-color="#B2DBF1"/>
<stop offset="0.644531" stop-color="#B3DCF1"/>
<stop offset="0.648438" stop-color="#B3DCF1"/>
<stop offset="0.652344" stop-color="#B4DCF1"/>
<stop offset="0.65625" stop-color="#B4DCF1"/>
<stop offset="0.660156" stop-color="#B5DDF1"/>
<stop offset="0.664062" stop-color="#B6DDF1"/>
<stop offset="0.667969" stop-color="#B6DDF2"/>
<stop offset="0.671875" stop-color="#B7DDF2"/>
<stop offset="0.675781" stop-color="#B7DEF2"/>
<stop offset="0.679688" stop-color="#B8DEF2"/>
<stop offset="0.683594" stop-color="#B9DEF2"/>
<stop offset="0.6875" stop-color="#B9DEF2"/>
<stop offset="0.691406" stop-color="#BADFF2"/>
<stop offset="0.695313" stop-color="#BADFF2"/>
<stop offset="0.699219" stop-color="#BBDFF2"/>
<stop offset="0.703125" stop-color="#BBDFF3"/>
<stop offset="0.707031" stop-color="#BCE0F3"/>
<stop offset="0.710937" stop-color="#BDE0F3"/>
<stop offset="0.714844" stop-color="#BDE0F3"/>
<stop offset="0.71875" stop-color="#BEE0F3"/>
<stop offset="0.722656" stop-color="#BEE1F3"/>
<stop offset="0.726562" stop-color="#BFE1F3"/>
<stop offset="0.730469" stop-color="#C0E1F3"/>
<stop offset="0.734375" stop-color="#C0E1F3"/>
<stop offset="0.738281" stop-color="#C1E2F4"/>
<stop offset="0.742188" stop-color="#C1E2F4"/>
<stop offset="0.746094" stop-color="#C2E2F4"/>
<stop offset="0.75" stop-color="#C2E2F4"/>
<stop offset="0.753906" stop-color="#C3E3F4"/>
<stop offset="0.757812" stop-color="#C4E3F4"/>
<stop offset="0.761719" stop-color="#C4E3F4"/>
<stop offset="0.765625" stop-color="#C5E3F4"/>
<stop offset="0.769531" stop-color="#C5E4F4"/>
<stop offset="0.773438" stop-color="#C6E4F4"/>
<stop offset="0.777344" stop-color="#C7E4F5"/>
<stop offset="0.78125" stop-color="#C7E5F5"/>
<stop offset="0.785156" stop-color="#C8E5F5"/>
<stop offset="0.789062" stop-color="#C8E5F5"/>
<stop offset="0.792969" stop-color="#C9E5F5"/>
<stop offset="0.796875" stop-color="#C9E6F5"/>
<stop offset="0.800781" stop-color="#CAE6F5"/>
<stop offset="0.804688" stop-color="#CBE6F5"/>
<stop offset="0.808594" stop-color="#CBE6F5"/>
<stop offset="0.8125" stop-color="#CCE7F6"/>
<stop offset="0.816406" stop-color="#CCE7F6"/>
<stop offset="0.820312" stop-color="#CDE7F6"/>
<stop offset="0.824219" stop-color="#CEE7F6"/>
<stop offset="0.828125" stop-color="#CEE8F6"/>
<stop offset="0.832031" stop-color="#CFE8F6"/>
<stop offset="0.835937" stop-color="#CFE8F6"/>
<stop offset="0.839844" stop-color="#D0E8F6"/>
<stop offset="0.84375" stop-color="#D1E9F6"/>
<stop offset="0.847656" stop-color="#D1E9F7"/>
<stop offset="0.851562" stop-color="#D2E9F7"/>
<stop offset="0.855469" stop-color="#D2E9F7"/>
<stop offset="0.859375" stop-color="#D3EAF7"/>
<stop offset="0.863281" stop-color="#D3EAF7"/>
<stop offset="0.867188" stop-color="#D4EAF7"/>
<stop offset="0.875" stop-color="#D4EAF7"/>
<stop offset="1" stop-color="#D4EAF7"/>
</linearGradient>
<clipPath id="clip0_1915_19092">
<rect width="28" height="28" fill="white" transform="translate(0 3.5)"/>
</clipPath>
</defs>
</svg>
