<svg width="35" height="35" viewBox="0 0 35 35" fill="none" xmlns="http://www.w3.org/2000/svg">
<rect width="35" height="35" rx="17.5" fill="#D4EAF7"/>
<path d="M25.0849 12.3539H24.8141V9.91636C24.8112 9.41443 24.6106 8.93387 24.2556 8.57894C23.9007 8.22402 23.4202 8.02337 22.9182 8.02053C22.8323 8.00488 22.7442 8.00488 22.6582 8.02053L9.76657 12.3539H9.6474H9.47407L9.2899 12.4189H9.13823L8.9649 12.5164L8.8349 12.7005L8.68323 12.8305L8.56407 12.9389L8.43407 13.1014C8.39941 13.1324 8.37012 13.1691 8.3474 13.2097C8.30719 13.2723 8.27101 13.3375 8.23907 13.4047L8.17407 13.5239C8.1439 13.6017 8.11858 13.6813 8.09823 13.7622C8.10311 13.8018 8.10311 13.8418 8.09823 13.8814C8.08705 14.0039 8.08705 14.1272 8.09823 14.2497V25.083C8.10051 25.5722 8.29068 26.0417 8.62943 26.3946C8.96818 26.7475 9.42959 26.9566 9.91823 26.9789H25.0849C25.5868 26.976 26.0674 26.7754 26.4223 26.4204C26.7772 26.0655 26.9779 25.585 26.9807 25.083V14.2497C26.9779 13.7478 26.7772 13.2672 26.4223 12.9123C26.0674 12.5574 25.5868 12.3567 25.0849 12.3539ZM23.0049 9.65636C23.0583 9.67604 23.1044 9.71141 23.1373 9.75782C23.1702 9.80422 23.1882 9.8595 23.1891 9.91636V12.3539H14.9232L23.0049 9.65636ZM25.3557 25.083C25.3557 25.1549 25.3272 25.2237 25.2764 25.2745C25.2256 25.3253 25.1567 25.3539 25.0849 25.3539H9.91823C9.8464 25.3539 9.77752 25.3253 9.72672 25.2745C9.67593 25.2237 9.6474 25.1549 9.6474 25.083V14.2497C9.6474 14.1779 9.67593 14.109 9.72672 14.0582C9.77752 14.0074 9.8464 13.9789 9.91823 13.9789H25.0849C25.1567 13.9789 25.2256 14.0074 25.2764 14.0582C25.3272 14.109 25.3557 14.1779 25.3557 14.2497V25.083Z" fill="#00668C"/>
<path d="M22.3776 21.0208C23.1255 21.0208 23.7318 20.4146 23.7318 19.6667C23.7318 18.9188 23.1255 18.3125 22.3776 18.3125C21.6297 18.3125 21.0234 18.9188 21.0234 19.6667C21.0234 20.4146 21.6297 21.0208 22.3776 21.0208Z" fill="#00668C"/>
</svg>
